<svg width="569" height="213" viewBox="0 0 569 213" fill="none" xmlns="http://www.w3.org/2000/svg">
<path d="M110.814 32.48C112.278 32.48 113.46 32.984 114.36 33.992C115.272 34.988 115.728 36.446 115.728 38.366C115.728 40.274 115.278 41.726 114.378 42.722C113.478 43.706 112.29 44.198 110.814 44.198C109.338 44.198 108.15 43.7 107.25 42.704C106.362 41.696 105.918 40.244 105.918 38.348C105.918 36.44 106.362 34.988 107.25 33.992C108.15 32.984 109.338 32.48 110.814 32.48ZM110.814 33.758C109.758 33.758 108.924 34.154 108.312 34.946C107.7 35.738 107.394 36.878 107.394 38.366C107.394 39.854 107.7 40.982 108.312 41.75C108.924 42.518 109.758 42.902 110.814 42.902C111.87 42.902 112.704 42.518 113.316 41.75C113.94 40.982 114.252 39.854 114.252 38.366C114.252 36.878 113.94 35.738 113.316 34.946C112.704 34.154 111.87 33.758 110.814 33.758ZM119.787 36.71C120.351 35.69 121.191 35.18 122.307 35.18C123.435 35.18 124.371 35.594 125.115 36.422C125.871 37.25 126.249 38.342 126.249 39.698C126.249 41.054 125.871 42.146 125.115 42.974C124.359 43.79 123.429 44.198 122.325 44.198C121.221 44.198 120.405 43.784 119.877 42.956V48.23H118.455V35.396H119.625L119.787 36.71ZM122.253 42.938C122.925 42.938 123.513 42.65 124.017 42.074C124.533 41.498 124.791 40.712 124.791 39.716C124.791 38.708 124.545 37.91 124.053 37.322C123.573 36.734 122.985 36.44 122.289 36.44C121.593 36.44 121.023 36.662 120.579 37.106C120.135 37.538 119.901 38.126 119.877 38.87V40.508C119.877 41.264 120.105 41.858 120.561 42.29C121.017 42.722 121.581 42.938 122.253 42.938ZM132.112 43.046C133.3 43.046 133.978 42.524 134.146 41.48H135.604C135.472 42.344 135.088 43.016 134.452 43.496C133.828 43.964 133.048 44.198 132.112 44.198C130.96 44.198 130.024 43.79 129.304 42.974C128.584 42.146 128.224 41.048 128.224 39.68C128.224 38.312 128.584 37.22 129.304 36.404C130.036 35.588 131.002 35.18 132.202 35.18C133.414 35.18 134.314 35.648 134.902 36.584C135.502 37.52 135.712 38.66 135.532 40.004H129.646C129.646 40.892 129.862 41.624 130.294 42.2C130.726 42.764 131.332 43.046 132.112 43.046ZM133.156 36.53C132.88 36.386 132.544 36.314 132.148 36.314C131.416 36.314 130.834 36.566 130.402 37.07C129.982 37.562 129.736 38.18 129.664 38.924H134.254C134.254 37.724 133.888 36.926 133.156 36.53ZM141.916 36.602C140.56 36.602 139.858 37.67 139.81 39.806V44H138.388V35.378H139.81V37.034C140.242 35.834 141.004 35.234 142.096 35.234C142.444 35.234 142.774 35.288 143.086 35.396L143.014 36.782C142.654 36.662 142.288 36.602 141.916 36.602ZM150.589 38.42C150.589 37.64 150.427 37.082 150.103 36.746C149.779 36.41 149.305 36.242 148.681 36.242C148.069 36.242 147.571 36.368 147.187 36.62C146.815 36.86 146.629 37.244 146.629 37.772H145.063C145.063 36.452 145.771 35.636 147.187 35.324C147.619 35.228 148.087 35.18 148.591 35.18C149.659 35.18 150.493 35.45 151.093 35.99C151.693 36.53 151.993 37.352 151.993 38.456V44H150.769L150.625 42.56C150.097 43.652 149.143 44.198 147.763 44.198C146.839 44.198 146.095 43.94 145.531 43.424C144.979 42.908 144.703 42.266 144.703 41.498C144.703 40.73 145.009 40.13 145.621 39.698C146.245 39.266 147.019 39.05 147.943 39.05C148.867 39.05 149.749 39.206 150.589 39.518V38.42ZM150.589 40.418C149.737 40.178 148.993 40.058 148.357 40.058C147.721 40.058 147.205 40.172 146.809 40.4C146.413 40.628 146.215 40.988 146.215 41.48C146.215 42.56 146.827 43.1 148.051 43.1C148.747 43.1 149.341 42.854 149.833 42.362C150.337 41.858 150.589 41.21 150.589 40.418ZM160.968 36.674V31.742H162.372V44H161.22L161.04 42.56C160.764 43.1 160.398 43.508 159.942 43.784C159.486 44.06 158.988 44.198 158.448 44.198C157.356 44.198 156.438 43.778 155.694 42.938C154.962 42.098 154.596 41.006 154.596 39.662C154.596 38.306 154.956 37.22 155.676 36.404C156.408 35.588 157.326 35.18 158.43 35.18C159.546 35.18 160.392 35.678 160.968 36.674ZM158.52 36.44C157.824 36.44 157.236 36.734 156.756 37.322C156.288 37.91 156.054 38.696 156.054 39.68C156.054 40.664 156.294 41.456 156.774 42.056C157.254 42.644 157.83 42.938 158.502 42.938C159.174 42.938 159.744 42.716 160.212 42.272C160.692 41.816 160.944 41.21 160.968 40.454V39.05C160.968 38.246 160.734 37.61 160.266 37.142C159.798 36.674 159.216 36.44 158.52 36.44ZM169.117 35.18C170.317 35.18 171.283 35.57 172.015 36.35C172.759 37.13 173.131 38.246 173.131 39.698C173.131 41.138 172.759 42.248 172.015 43.028C171.283 43.808 170.317 44.198 169.117 44.198C167.917 44.198 166.945 43.808 166.201 43.028C165.469 42.248 165.103 41.138 165.103 39.698C165.103 38.246 165.469 37.13 166.201 36.35C166.945 35.57 167.917 35.18 169.117 35.18ZM171.691 39.698C171.691 38.666 171.475 37.862 171.043 37.286C170.611 36.698 169.975 36.404 169.135 36.404C168.307 36.404 167.671 36.698 167.227 37.286C166.783 37.862 166.561 38.666 166.561 39.698C166.561 40.718 166.771 41.522 167.191 42.11C167.611 42.686 168.235 42.974 169.063 42.974C169.903 42.974 170.551 42.686 171.007 42.11C171.463 41.522 171.691 40.718 171.691 39.698ZM179.357 36.602C178.001 36.602 177.299 37.67 177.251 39.806V44H175.829V35.378H177.251V37.034C177.683 35.834 178.445 35.234 179.537 35.234C179.885 35.234 180.215 35.288 180.527 35.396L180.455 36.782C180.095 36.662 179.729 36.602 179.357 36.602ZM188.324 36.71C188.888 35.69 189.728 35.18 190.844 35.18C191.972 35.18 192.908 35.594 193.652 36.422C194.408 37.25 194.786 38.342 194.786 39.698C194.786 41.054 194.408 42.146 193.652 42.974C192.896 43.79 191.966 44.198 190.862 44.198C189.758 44.198 188.942 43.784 188.414 42.956V48.23H186.992V35.396H188.162L188.324 36.71ZM190.79 42.938C191.462 42.938 192.05 42.65 192.554 42.074C193.07 41.498 193.328 40.712 193.328 39.716C193.328 38.708 193.082 37.91 192.59 37.322C192.11 36.734 191.522 36.44 190.826 36.44C190.13 36.44 189.56 36.662 189.116 37.106C188.672 37.538 188.438 38.126 188.414 38.87V40.508C188.414 41.264 188.642 41.858 189.098 42.29C189.554 42.722 190.118 42.938 190.79 42.938ZM201.189 36.602C199.833 36.602 199.131 37.67 199.083 39.806V44H197.661V35.378H199.083V37.034C199.515 35.834 200.277 35.234 201.369 35.234C201.717 35.234 202.047 35.288 202.359 35.396L202.287 36.782C201.927 36.662 201.561 36.602 201.189 36.602ZM207.505 43.046C208.693 43.046 209.371 42.524 209.539 41.48H210.997C210.865 42.344 210.481 43.016 209.845 43.496C209.221 43.964 208.441 44.198 207.505 44.198C206.353 44.198 205.417 43.79 204.697 42.974C203.977 42.146 203.617 41.048 203.617 39.68C203.617 38.312 203.977 37.22 204.697 36.404C205.429 35.588 206.395 35.18 207.595 35.18C208.807 35.18 209.707 35.648 210.295 36.584C210.895 37.52 211.105 38.66 210.925 40.004H205.039C205.039 40.892 205.255 41.624 205.687 42.2C206.119 42.764 206.725 43.046 207.505 43.046ZM208.549 36.53C208.273 36.386 207.937 36.314 207.541 36.314C206.809 36.314 206.227 36.566 205.795 37.07C205.375 37.562 205.129 38.18 205.057 38.924H209.647C209.647 37.724 209.281 36.926 208.549 36.53ZM212.664 38.15H217.56V39.374H212.664V38.15ZM221.406 36.71C221.97 35.69 222.81 35.18 223.926 35.18C225.054 35.18 225.99 35.594 226.734 36.422C227.49 37.25 227.868 38.342 227.868 39.698C227.868 41.054 227.49 42.146 226.734 42.974C225.978 43.79 225.048 44.198 223.944 44.198C222.84 44.198 222.024 43.784 221.496 42.956V48.23H220.074V35.396H221.244L221.406 36.71ZM223.872 42.938C224.544 42.938 225.132 42.65 225.636 42.074C226.152 41.498 226.41 40.712 226.41 39.716C226.41 38.708 226.164 37.91 225.672 37.322C225.192 36.734 224.604 36.44 223.908 36.44C223.212 36.44 222.642 36.662 222.198 37.106C221.754 37.538 221.52 38.126 221.496 38.87V40.508C221.496 41.264 221.724 41.858 222.18 42.29C222.636 42.722 223.2 42.938 223.872 42.938ZM234.271 36.602C232.915 36.602 232.213 37.67 232.165 39.806V44H230.743V35.378H232.165V37.034C232.597 35.834 233.359 35.234 234.451 35.234C234.799 35.234 235.129 35.288 235.441 35.396L235.369 36.782C235.009 36.662 234.643 36.602 234.271 36.602ZM240.587 43.046C241.775 43.046 242.453 42.524 242.621 41.48H244.079C243.947 42.344 243.563 43.016 242.927 43.496C242.303 43.964 241.523 44.198 240.587 44.198C239.435 44.198 238.499 43.79 237.779 42.974C237.059 42.146 236.699 41.048 236.699 39.68C236.699 38.312 237.059 37.22 237.779 36.404C238.511 35.588 239.477 35.18 240.677 35.18C241.889 35.18 242.789 35.648 243.377 36.584C243.977 37.52 244.187 38.66 244.007 40.004H238.121C238.121 40.892 238.337 41.624 238.769 42.2C239.201 42.764 239.807 43.046 240.587 43.046ZM241.631 36.53C241.355 36.386 241.019 36.314 240.623 36.314C239.891 36.314 239.309 36.566 238.877 37.07C238.457 37.562 238.211 38.18 238.139 38.924H242.729C242.729 37.724 242.363 36.926 241.631 36.53ZM248.249 37.052C248.813 35.804 249.779 35.18 251.147 35.18C252.167 35.18 252.959 35.516 253.523 36.188C254.099 36.86 254.387 37.778 254.387 38.942V44H252.983V38.942C252.983 38.114 252.785 37.49 252.389 37.07C252.005 36.65 251.453 36.44 250.733 36.44C250.013 36.44 249.431 36.734 248.987 37.322C248.543 37.91 248.309 38.726 248.285 39.77V44H246.863V35.396H248.087L248.249 37.052ZM257.276 37.502C257.276 36.794 257.576 36.23 258.176 35.81C258.788 35.39 259.61 35.18 260.642 35.18C261.674 35.18 262.478 35.396 263.054 35.828C263.642 36.26 263.948 36.806 263.972 37.466H262.586C262.478 36.686 261.818 36.296 260.606 36.296C260.018 36.296 259.562 36.428 259.238 36.692C258.926 36.956 258.77 37.244 258.77 37.556C258.77 37.856 258.89 38.114 259.13 38.33C259.37 38.534 259.754 38.714 260.282 38.87L262.01 39.446C262.742 39.674 263.3 39.968 263.684 40.328C264.08 40.676 264.278 41.162 264.278 41.786C264.278 42.398 263.96 42.956 263.324 43.46C262.688 43.952 261.8 44.198 260.66 44.198C259.52 44.198 258.632 43.946 257.996 43.442C257.36 42.926 257.024 42.266 256.988 41.462H258.356C258.38 42.002 258.596 42.41 259.004 42.686C259.424 42.95 259.946 43.082 260.57 43.082C261.194 43.082 261.71 42.95 262.118 42.686C262.526 42.422 262.73 42.11 262.73 41.75C262.73 41.378 262.61 41.096 262.37 40.904C262.13 40.712 261.74 40.544 261.2 40.4L259.526 39.842C258.026 39.398 257.276 38.618 257.276 37.502ZM272.529 38.42C272.529 37.64 272.367 37.082 272.043 36.746C271.719 36.41 271.245 36.242 270.621 36.242C270.009 36.242 269.511 36.368 269.127 36.62C268.755 36.86 268.569 37.244 268.569 37.772H267.003C267.003 36.452 267.711 35.636 269.127 35.324C269.559 35.228 270.027 35.18 270.531 35.18C271.599 35.18 272.433 35.45 273.033 35.99C273.633 36.53 273.933 37.352 273.933 38.456V44H272.709L272.565 42.56C272.037 43.652 271.083 44.198 269.703 44.198C268.779 44.198 268.035 43.94 267.471 43.424C266.919 42.908 266.643 42.266 266.643 41.498C266.643 40.73 266.949 40.13 267.561 39.698C268.185 39.266 268.959 39.05 269.883 39.05C270.807 39.05 271.689 39.206 272.529 39.518V38.42ZM272.529 40.418C271.677 40.178 270.933 40.058 270.297 40.058C269.661 40.058 269.145 40.172 268.749 40.4C268.353 40.628 268.155 40.988 268.155 41.48C268.155 42.56 268.767 43.1 269.991 43.1C270.687 43.1 271.281 42.854 271.773 42.362C272.277 41.858 272.529 41.21 272.529 40.418Z" fill="#454545"/>
<path d="M111.156 5.084C111.936 5.084 112.65 5.216 113.298 5.48C113.946 5.732 114.504 6.11 114.972 6.614C115.956 7.67 116.448 9.182 116.448 11.15C116.448 13.13 115.956 14.66 114.972 15.74C114.036 16.748 112.758 17.252 111.138 17.252C109.53 17.252 108.258 16.736 107.322 15.704C106.338 14.636 105.846 13.118 105.846 11.15C105.846 9.158 106.338 7.634 107.322 6.578C108.246 5.582 109.524 5.084 111.156 5.084ZM114.252 11.186C114.252 9.842 113.97 8.81 113.406 8.09C112.854 7.358 112.104 6.992 111.156 6.992C110.208 6.992 109.452 7.358 108.888 8.09C108.324 8.81 108.042 9.842 108.042 11.186C108.042 12.518 108.324 13.544 108.888 14.264C109.452 14.972 110.208 15.326 111.156 15.326C112.104 15.326 112.854 14.972 113.406 14.264C113.97 13.544 114.252 12.518 114.252 11.186ZM119.717 13.418C119.009 12.818 118.655 12.068 118.655 11.168C118.655 10.22 119.027 9.452 119.771 8.864C120.491 8.3 121.313 8.018 122.237 8.018C123.173 8.018 123.953 8.192 124.577 8.54C124.649 7.856 124.943 7.304 125.459 6.884C125.963 6.464 126.557 6.254 127.241 6.254L127.133 8.288C126.101 8.288 125.567 8.63 125.531 9.314C125.975 9.866 126.197 10.43 126.197 11.006C126.197 11.582 126.095 12.068 125.891 12.464C125.687 12.848 125.411 13.172 125.063 13.436C124.343 14.012 123.467 14.3 122.435 14.3C121.847 14.3 121.313 14.21 120.833 14.03C120.353 14.174 120.113 14.462 120.113 14.894C120.113 15.434 120.569 15.704 121.481 15.704H124.415C126.407 15.704 127.403 16.4 127.403 17.792C127.403 18.26 127.283 18.716 127.043 19.16C126.815 19.616 126.479 20.018 126.035 20.366C125.051 21.134 123.815 21.518 122.327 21.518C120.887 21.518 119.717 21.224 118.817 20.636C117.977 20.072 117.557 19.382 117.557 18.566C117.557 18.026 117.719 17.594 118.043 17.27C118.379 16.958 118.817 16.76 119.357 16.676C118.649 16.244 118.295 15.71 118.295 15.074C118.295 14.654 118.427 14.306 118.691 14.03C118.955 13.742 119.297 13.538 119.717 13.418ZM121.337 17.198C120.209 17.246 119.645 17.672 119.645 18.476C119.645 18.884 119.879 19.208 120.347 19.448C120.827 19.7 121.391 19.826 122.039 19.826C122.687 19.826 123.191 19.772 123.551 19.664C123.923 19.556 124.235 19.412 124.487 19.232C125.027 18.872 125.297 18.44 125.297 17.936C125.297 17.72 125.219 17.54 125.063 17.396C124.919 17.264 124.703 17.198 124.415 17.198H121.337ZM124.091 11.15C124.091 10.658 123.953 10.262 123.677 9.962C123.413 9.65 123.005 9.494 122.453 9.494C121.901 9.494 121.481 9.65 121.193 9.962C120.905 10.262 120.761 10.658 120.761 11.15C120.761 11.63 120.905 12.026 121.193 12.338C121.481 12.65 121.901 12.806 122.453 12.806C123.005 12.806 123.413 12.65 123.677 12.338C123.953 12.026 124.091 11.63 124.091 11.15ZM131.562 9.98C132.09 8.72 132.882 8.09 133.938 8.09C134.142 8.09 134.4 8.132 134.712 8.216L134.676 10.34C134.34 10.268 134.01 10.232 133.686 10.232C132.27 10.232 131.562 11.21 131.562 13.166V17H129.438V8.234H131.562V9.98ZM139.806 11.888C140.502 11.888 141.306 12.002 142.218 12.23V11.366C142.218 10.754 142.092 10.304 141.84 10.016C141.6 9.716 141.198 9.566 140.634 9.566C140.082 9.566 139.656 9.68 139.356 9.908C139.056 10.124 138.906 10.436 138.906 10.844H136.584C136.584 9.848 136.932 9.128 137.628 8.684C138.336 8.24 139.32 8.018 140.58 8.018C142.38 8.018 143.544 8.648 144.072 9.908C144.252 10.34 144.342 10.85 144.342 11.438V17H142.488L142.326 15.83C141.762 16.778 140.898 17.252 139.734 17.252C138.606 17.252 137.73 16.976 137.106 16.424C136.53 15.896 136.242 15.23 136.242 14.426C136.242 13.61 136.56 12.986 137.196 12.554C137.832 12.11 138.702 11.888 139.806 11.888ZM142.218 13.58C141.51 13.388 140.85 13.292 140.238 13.292C139.086 13.292 138.51 13.676 138.51 14.444C138.51 14.768 138.642 15.05 138.906 15.29C139.17 15.518 139.59 15.632 140.166 15.632C140.754 15.632 141.234 15.44 141.606 15.056C141.99 14.66 142.194 14.168 142.218 13.58ZM155.214 9.908C155.778 8.648 156.768 8.018 158.184 8.018C159.228 8.018 160.038 8.372 160.614 9.08C161.166 9.752 161.442 10.688 161.442 11.888V17H159.3V11.888C159.3 11.24 159.144 10.754 158.832 10.43C158.52 10.094 158.082 9.926 157.518 9.926C156.954 9.926 156.492 10.172 156.132 10.664C155.772 11.156 155.58 11.9 155.556 12.896V17H153.432V11.888C153.432 11.24 153.276 10.754 152.964 10.43C152.652 10.094 152.214 9.926 151.65 9.926C151.086 9.926 150.6 10.178 150.192 10.682C149.796 11.186 149.586 11.942 149.562 12.95V17H147.438V8.252H149.292L149.526 9.764C150.102 8.6 151.026 8.018 152.298 8.018C153.03 8.018 153.636 8.186 154.116 8.522C154.608 8.858 154.974 9.32 155.214 9.908ZM167.404 11.888C168.1 11.888 168.904 12.002 169.816 12.23V11.366C169.816 10.754 169.69 10.304 169.438 10.016C169.198 9.716 168.796 9.566 168.232 9.566C167.68 9.566 167.254 9.68 166.954 9.908C166.654 10.124 166.504 10.436 166.504 10.844H164.182C164.182 9.848 164.53 9.128 165.226 8.684C165.934 8.24 166.918 8.018 168.178 8.018C169.978 8.018 171.142 8.648 171.67 9.908C171.85 10.34 171.94 10.85 171.94 11.438V17H170.086L169.924 15.83C169.36 16.778 168.496 17.252 167.332 17.252C166.204 17.252 165.328 16.976 164.704 16.424C164.128 15.896 163.84 15.23 163.84 14.426C163.84 13.61 164.158 12.986 164.794 12.554C165.43 12.11 166.3 11.888 167.404 11.888ZM169.816 13.58C169.108 13.388 168.448 13.292 167.836 13.292C166.684 13.292 166.108 13.676 166.108 14.444C166.108 14.768 166.24 15.05 166.504 15.29C166.768 15.518 167.188 15.632 167.764 15.632C168.352 15.632 168.832 15.44 169.204 15.056C169.588 14.66 169.792 14.168 169.816 13.58ZM179.588 5.318H181.712V17H179.588V5.318ZM192.831 9.908C193.395 8.648 194.385 8.018 195.801 8.018C196.845 8.018 197.655 8.372 198.231 9.08C198.783 9.752 199.059 10.688 199.059 11.888V17H196.917V11.888C196.917 11.24 196.761 10.754 196.449 10.43C196.137 10.094 195.699 9.926 195.135 9.926C194.571 9.926 194.109 10.172 193.749 10.664C193.389 11.156 193.197 11.9 193.173 12.896V17H191.049V11.888C191.049 11.24 190.893 10.754 190.581 10.43C190.269 10.094 189.831 9.926 189.267 9.926C188.703 9.926 188.217 10.178 187.809 10.682C187.413 11.186 187.203 11.942 187.179 12.95V17H185.055V8.252H186.909L187.143 9.764C187.719 8.6 188.643 8.018 189.915 8.018C190.647 8.018 191.253 8.186 191.733 8.522C192.225 8.858 192.591 9.32 192.831 9.908ZM204.085 9.44C204.637 8.492 205.477 8.018 206.605 8.018C207.685 8.018 208.609 8.426 209.377 9.242C210.193 10.106 210.601 11.234 210.601 12.626C210.601 14.03 210.187 15.164 209.359 16.028C208.591 16.844 207.673 17.252 206.605 17.252C205.537 17.252 204.757 16.934 204.265 16.298V21.266H202.141V8.252H203.887L204.085 9.44ZM206.227 15.326C206.479 15.326 206.737 15.272 207.001 15.164C207.277 15.056 207.523 14.888 207.739 14.66C208.219 14.156 208.459 13.484 208.459 12.644C208.459 11.792 208.249 11.126 207.829 10.646C207.421 10.166 206.917 9.926 206.317 9.926C205.729 9.926 205.243 10.1 204.859 10.448C204.487 10.784 204.289 11.27 204.265 11.906V13.472C204.265 14.036 204.463 14.492 204.859 14.84C205.231 15.164 205.687 15.326 206.227 15.326ZM215.251 9.98C215.779 8.72 216.571 8.09 217.627 8.09C217.831 8.09 218.089 8.132 218.401 8.216L218.365 10.34C218.029 10.268 217.699 10.232 217.375 10.232C215.959 10.232 215.251 11.21 215.251 13.166V17H213.127V8.234H215.251V9.98ZM226.717 9.296C227.017 9.68 227.239 10.124 227.383 10.628C227.539 11.132 227.617 11.594 227.617 12.014C227.617 12.434 227.593 12.812 227.545 13.148H221.893C221.917 13.856 222.091 14.432 222.415 14.876C222.739 15.32 223.231 15.542 223.891 15.542C224.767 15.542 225.289 15.158 225.457 14.39H227.599C227.455 15.266 227.053 15.956 226.393 16.46C225.709 16.988 224.875 17.252 223.891 17.252C222.739 17.252 221.773 16.832 220.993 15.992C220.189 15.116 219.787 13.994 219.787 12.626C219.787 11.222 220.189 10.094 220.993 9.242C221.761 8.426 222.727 8.018 223.891 8.018C225.103 8.018 226.045 8.444 226.717 9.296ZM223.909 9.71C223.309 9.71 222.841 9.908 222.505 10.304C222.169 10.688 221.971 11.186 221.911 11.798H225.637C225.637 10.85 225.337 10.214 224.737 9.89C224.509 9.77 224.233 9.71 223.909 9.71ZM231.348 14.336C231.372 15.164 231.978 15.578 233.166 15.578C233.622 15.578 233.994 15.482 234.282 15.29C234.582 15.086 234.732 14.852 234.732 14.588C234.732 14.324 234.642 14.12 234.462 13.976C234.282 13.832 234 13.7 233.616 13.58L231.708 12.896C230.292 12.404 229.584 11.6 229.584 10.484C229.584 9.74 229.914 9.146 230.574 8.702C231.246 8.246 232.14 8.018 233.256 8.018C234.384 8.018 235.248 8.264 235.848 8.756C236.46 9.248 236.778 9.866 236.802 10.61H234.804C234.78 10.322 234.642 10.094 234.39 9.926C234.138 9.758 233.778 9.674 233.31 9.674C232.842 9.674 232.476 9.77 232.212 9.962C231.96 10.142 231.834 10.352 231.834 10.592C231.834 11.012 232.188 11.324 232.896 11.528L234.966 12.302C235.65 12.53 236.172 12.824 236.532 13.184C236.904 13.532 237.09 13.988 237.09 14.552C237.09 15.272 236.748 15.896 236.064 16.424C235.356 16.976 234.42 17.252 233.256 17.252C232.092 17.252 231.156 17 230.448 16.496C229.74 15.98 229.38 15.26 229.368 14.336H231.348ZM243.091 8.018C243.679 8.018 244.231 8.114 244.747 8.306C245.263 8.486 245.707 8.768 246.079 9.152C246.907 9.992 247.321 11.156 247.321 12.644C247.321 14.108 246.907 15.26 246.079 16.1C245.335 16.868 244.339 17.252 243.091 17.252C241.843 17.252 240.835 16.868 240.067 16.1C239.239 15.272 238.825 14.12 238.825 12.644C238.825 11.144 239.239 9.98 240.067 9.152C240.823 8.396 241.831 8.018 243.091 8.018ZM245.197 12.626C245.197 11.702 245.017 11.012 244.657 10.556C244.297 10.088 243.793 9.854 243.145 9.854C242.509 9.854 241.987 10.088 241.579 10.556C241.171 11.012 240.967 11.702 240.967 12.626C240.967 13.55 241.147 14.246 241.507 14.714C241.879 15.17 242.383 15.398 243.019 15.398C243.655 15.398 244.177 15.17 244.585 14.714C244.993 14.246 245.197 13.55 245.197 12.626ZM251.972 9.98C252.5 8.72 253.292 8.09 254.348 8.09C254.552 8.09 254.81 8.132 255.122 8.216L255.086 10.34C254.75 10.268 254.42 10.232 254.096 10.232C252.68 10.232 251.972 11.21 251.972 13.166V17H249.848V8.234H251.972V9.98ZM263.438 9.296C263.738 9.68 263.96 10.124 264.104 10.628C264.26 11.132 264.338 11.594 264.338 12.014C264.338 12.434 264.314 12.812 264.266 13.148H258.614C258.638 13.856 258.812 14.432 259.136 14.876C259.46 15.32 259.952 15.542 260.612 15.542C261.488 15.542 262.01 15.158 262.178 14.39H264.32C264.176 15.266 263.774 15.956 263.114 16.46C262.43 16.988 261.596 17.252 260.612 17.252C259.46 17.252 258.494 16.832 257.714 15.992C256.91 15.116 256.508 13.994 256.508 12.626C256.508 11.222 256.91 10.094 257.714 9.242C258.482 8.426 259.448 8.018 260.612 8.018C261.824 8.018 262.766 8.444 263.438 9.296ZM260.63 9.71C260.03 9.71 259.562 9.908 259.226 10.304C258.89 10.688 258.692 11.186 258.632 11.798H262.358C262.358 10.85 262.058 10.214 261.458 9.89C261.23 9.77 260.954 9.71 260.63 9.71ZM268.069 14.336C268.093 15.164 268.699 15.578 269.887 15.578C270.343 15.578 270.715 15.482 271.003 15.29C271.303 15.086 271.453 14.852 271.453 14.588C271.453 14.324 271.363 14.12 271.183 13.976C271.003 13.832 270.721 13.7 270.337 13.58L268.429 12.896C267.013 12.404 266.305 11.6 266.305 10.484C266.305 9.74 266.635 9.146 267.295 8.702C267.967 8.246 268.861 8.018 269.977 8.018C271.105 8.018 271.969 8.264 272.569 8.756C273.181 9.248 273.499 9.866 273.523 10.61H271.525C271.501 10.322 271.363 10.094 271.111 9.926C270.859 9.758 270.499 9.674 270.031 9.674C269.563 9.674 269.197 9.77 268.933 9.962C268.681 10.142 268.555 10.352 268.555 10.592C268.555 11.012 268.909 11.324 269.617 11.528L271.687 12.302C272.371 12.53 272.893 12.824 273.253 13.184C273.625 13.532 273.811 13.988 273.811 14.552C273.811 15.272 273.469 15.896 272.785 16.424C272.077 16.976 271.141 17.252 269.977 17.252C268.813 17.252 267.877 17 267.169 16.496C266.461 15.98 266.101 15.26 266.089 14.336H268.069Z" fill="black"/>
<path d="M266.13 112.678C267.834 112.678 269.196 113.194 270.216 114.226C271.248 115.246 271.764 116.62 271.764 118.348C271.764 120.064 271.248 121.438 270.216 122.47C269.196 123.49 267.834 124 266.13 124H262.8V112.678H266.13ZM264.222 122.758H266.13C267.39 122.758 268.392 122.344 269.136 121.516C269.88 120.676 270.252 119.614 270.252 118.33C270.252 117.046 269.874 115.996 269.118 115.18C268.374 114.352 267.378 113.938 266.13 113.938H264.222V122.758ZM274.808 115.378H276.23V124H274.808V115.378ZM275.51 113.362C275.222 113.362 274.994 113.284 274.826 113.128C274.67 112.96 274.592 112.744 274.592 112.48C274.592 112.204 274.67 111.988 274.826 111.832C274.994 111.664 275.222 111.58 275.51 111.58C275.798 111.58 276.026 111.664 276.194 111.832C276.374 111.988 276.464 112.204 276.464 112.48C276.464 112.744 276.374 112.96 276.194 113.128C276.026 113.284 275.798 113.362 275.51 113.362ZM279.647 117.502C279.647 116.794 279.947 116.23 280.547 115.81C281.159 115.39 281.981 115.18 283.013 115.18C284.045 115.18 284.849 115.396 285.425 115.828C286.013 116.26 286.319 116.806 286.343 117.466H284.957C284.849 116.686 284.189 116.296 282.977 116.296C282.389 116.296 281.933 116.428 281.609 116.692C281.297 116.956 281.141 117.244 281.141 117.556C281.141 117.856 281.261 118.114 281.501 118.33C281.741 118.534 282.125 118.714 282.653 118.87L284.381 119.446C285.113 119.674 285.671 119.968 286.055 120.328C286.451 120.676 286.649 121.162 286.649 121.786C286.649 122.398 286.331 122.956 285.695 123.46C285.059 123.952 284.171 124.198 283.031 124.198C281.891 124.198 281.003 123.946 280.367 123.442C279.731 122.926 279.395 122.266 279.359 121.462H280.727C280.751 122.002 280.967 122.41 281.375 122.686C281.795 122.95 282.317 123.082 282.941 123.082C283.565 123.082 284.081 122.95 284.489 122.686C284.897 122.422 285.101 122.11 285.101 121.75C285.101 121.378 284.981 121.096 284.741 120.904C284.501 120.712 284.111 120.544 283.571 120.4L281.897 119.842C280.397 119.398 279.647 118.618 279.647 117.502ZM292.542 123.046C293.73 123.046 294.408 122.524 294.576 121.48H296.034C295.902 122.344 295.518 123.016 294.882 123.496C294.258 123.964 293.478 124.198 292.542 124.198C291.39 124.198 290.454 123.79 289.734 122.974C289.014 122.146 288.654 121.048 288.654 119.68C288.654 118.312 289.014 117.22 289.734 116.404C290.466 115.588 291.432 115.18 292.632 115.18C293.844 115.18 294.744 115.648 295.332 116.584C295.932 117.52 296.142 118.66 295.962 120.004H290.076C290.076 120.892 290.292 121.624 290.724 122.2C291.156 122.764 291.762 123.046 292.542 123.046ZM293.586 116.53C293.31 116.386 292.974 116.314 292.578 116.314C291.846 116.314 291.264 116.566 290.832 117.07C290.412 117.562 290.166 118.18 290.094 118.924H294.684C294.684 117.724 294.318 116.926 293.586 116.53ZM303.12 115.18C301.752 115.18 300.786 115.804 300.222 117.052L300.06 115.396H298.836V124H300.258V119.77C300.282 118.726 300.516 117.91 300.96 117.322C301.404 116.734 301.986 116.44 302.706 116.44C303.426 116.44 303.978 116.65 304.362 117.07C304.758 117.49 304.956 118.114 304.956 118.942V124H306.36V118.942C306.36 117.778 306.072 116.86 305.496 116.188C304.932 115.516 304.14 115.18 303.12 115.18ZM301.284 112.462C300.9 112.462 300.558 112.768 300.258 113.38L299.682 113.038C299.826 112.426 300.036 111.964 300.312 111.652C300.588 111.328 300.882 111.166 301.194 111.166C301.506 111.166 301.866 111.268 302.274 111.472C302.826 111.748 303.18 111.922 303.336 111.994C303.504 112.066 303.666 112.102 303.822 112.102C303.978 112.102 304.14 112.03 304.308 111.886C304.476 111.73 304.62 111.49 304.74 111.166L305.37 111.58C305.238 112.156 305.022 112.6 304.722 112.912C304.434 113.224 304.164 113.38 303.912 113.38C303.672 113.38 303.45 113.344 303.246 113.272C303.042 113.2 302.76 113.074 302.4 112.894C302.04 112.702 301.794 112.582 301.662 112.534C301.542 112.486 301.416 112.462 301.284 112.462ZM315.027 118.42C315.027 117.64 314.865 117.082 314.541 116.746C314.217 116.41 313.743 116.242 313.119 116.242C312.507 116.242 312.009 116.368 311.625 116.62C311.253 116.86 311.067 117.244 311.067 117.772H309.501C309.501 116.452 310.209 115.636 311.625 115.324C312.057 115.228 312.525 115.18 313.029 115.18C314.097 115.18 314.931 115.45 315.531 115.99C316.131 116.53 316.431 117.352 316.431 118.456V124H315.207L315.063 122.56C314.535 123.652 313.581 124.198 312.201 124.198C311.277 124.198 310.533 123.94 309.969 123.424C309.417 122.908 309.141 122.266 309.141 121.498C309.141 120.73 309.447 120.13 310.059 119.698C310.683 119.266 311.457 119.05 312.381 119.05C313.305 119.05 314.187 119.206 315.027 119.518V118.42ZM315.027 120.418C314.175 120.178 313.431 120.058 312.795 120.058C312.159 120.058 311.643 120.172 311.247 120.4C310.851 120.628 310.653 120.988 310.653 121.48C310.653 122.56 311.265 123.1 312.489 123.1C313.185 123.1 313.779 122.854 314.271 122.362C314.775 121.858 315.027 121.21 315.027 120.418ZM325.405 116.674V111.742H326.809V124H325.657L325.477 122.56C325.201 123.1 324.835 123.508 324.379 123.784C323.923 124.06 323.425 124.198 322.885 124.198C321.793 124.198 320.875 123.778 320.131 122.938C319.399 122.098 319.033 121.006 319.033 119.662C319.033 118.306 319.393 117.22 320.113 116.404C320.845 115.588 321.763 115.18 322.867 115.18C323.983 115.18 324.829 115.678 325.405 116.674ZM322.957 116.44C322.261 116.44 321.673 116.734 321.193 117.322C320.725 117.91 320.491 118.696 320.491 119.68C320.491 120.664 320.731 121.456 321.211 122.056C321.691 122.644 322.267 122.938 322.939 122.938C323.611 122.938 324.181 122.716 324.649 122.272C325.129 121.816 325.381 121.21 325.405 120.454V119.05C325.405 118.246 325.171 117.61 324.703 117.142C324.235 116.674 323.653 116.44 322.957 116.44ZM333.555 115.18C334.755 115.18 335.721 115.57 336.453 116.35C337.197 117.13 337.569 118.246 337.569 119.698C337.569 121.138 337.197 122.248 336.453 123.028C335.721 123.808 334.755 124.198 333.555 124.198C332.355 124.198 331.383 123.808 330.639 123.028C329.907 122.248 329.541 121.138 329.541 119.698C329.541 118.246 329.907 117.13 330.639 116.35C331.383 115.57 332.355 115.18 333.555 115.18ZM336.129 119.698C336.129 118.666 335.913 117.862 335.481 117.286C335.049 116.698 334.413 116.404 333.573 116.404C332.745 116.404 332.109 116.698 331.665 117.286C331.221 117.862 330.999 118.666 330.999 119.698C330.999 120.718 331.209 121.522 331.629 122.11C332.049 122.686 332.673 122.974 333.501 122.974C334.341 122.974 334.989 122.686 335.445 122.11C335.901 121.522 336.129 120.718 336.129 119.698ZM343.795 116.602C342.439 116.602 341.737 117.67 341.689 119.806V124H340.267V115.378H341.689V117.034C342.121 115.834 342.883 115.234 343.975 115.234C344.323 115.234 344.653 115.288 344.965 115.396L344.893 116.782C344.533 116.662 344.167 116.602 343.795 116.602ZM358.431 122.056C357.927 123.484 356.949 124.198 355.497 124.198C354.045 124.198 352.851 123.67 351.915 122.614C350.991 121.558 350.529 120.136 350.529 118.348C350.529 116.56 351.033 115.138 352.041 114.082C353.061 113.026 354.327 112.498 355.839 112.498C356.727 112.498 357.501 112.678 358.161 113.038C358.833 113.398 359.409 113.974 359.889 114.766L358.521 115.234C357.741 114.262 356.829 113.776 355.785 113.776C354.741 113.776 353.853 114.202 353.121 115.054C352.401 115.906 352.041 117.016 352.041 118.384C352.041 119.74 352.353 120.832 352.977 121.66C353.601 122.488 354.441 122.902 355.497 122.902C356.361 122.902 357.057 122.614 357.585 122.038C358.113 121.462 358.377 120.61 358.377 119.482V119.446L355.533 119.338V118.402H359.763V124H358.611L358.431 122.056ZM366.541 116.602C365.185 116.602 364.483 117.67 364.435 119.806V124H363.013V115.378H364.435V117.034C364.867 115.834 365.629 115.234 366.721 115.234C367.069 115.234 367.399 115.288 367.711 115.396L367.639 116.782C367.279 116.662 366.913 116.602 366.541 116.602ZM375.034 118.42C375.034 117.64 374.872 117.082 374.548 116.746C374.224 116.41 373.75 116.242 373.126 116.242C372.514 116.242 372.016 116.368 371.632 116.62C371.26 116.86 371.074 117.244 371.074 117.772H369.508C369.508 116.452 370.216 115.636 371.632 115.324C372.064 115.228 372.532 115.18 373.036 115.18C374.104 115.18 374.938 115.45 375.538 115.99C376.138 116.53 376.438 117.352 376.438 118.456V124H375.214L375.07 122.56C374.542 123.652 373.588 124.198 372.208 124.198C371.284 124.198 370.54 123.94 369.976 123.424C369.424 122.908 369.148 122.266 369.148 121.498C369.148 120.73 369.454 120.13 370.066 119.698C370.69 119.266 371.464 119.05 372.388 119.05C373.312 119.05 374.194 119.206 375.034 119.518V118.42ZM375.034 120.418C374.182 120.178 373.438 120.058 372.802 120.058C372.166 120.058 371.65 120.172 371.254 120.4C370.858 120.628 370.66 120.988 370.66 121.48C370.66 122.56 371.272 123.1 372.496 123.1C373.18 123.1 373.768 122.86 374.26 122.38C374.752 121.9 375.01 121.282 375.034 120.526V120.418ZM375.538 112.102L371.146 114.136L370.732 113.236L374.962 110.842L375.538 112.102ZM383.976 112.948C383.58 112.792 383.268 112.714 383.04 112.714C382.62 112.714 382.29 112.816 382.05 113.02C381.81 113.224 381.69 113.584 381.69 114.1V115.396H383.472V116.368H381.69V124H380.286V116.368H378.864V115.396H380.286V114.082C380.286 113.23 380.52 112.606 380.988 112.21C381.456 111.802 381.996 111.598 382.608 111.598C383.22 111.598 383.76 111.676 384.228 111.832L383.976 112.948ZM386.06 115.378H387.482V124H386.06V115.378ZM386.762 113.362C386.474 113.362 386.246 113.284 386.078 113.128C385.922 112.96 385.844 112.744 385.844 112.48C385.844 112.204 385.922 111.988 386.078 111.832C386.246 111.664 386.474 111.58 386.762 111.58C387.05 111.58 387.278 111.664 387.446 111.832C387.626 111.988 387.716 112.204 387.716 112.48C387.716 112.744 387.626 112.96 387.446 113.128C387.278 113.284 387.05 113.362 386.762 113.362ZM394.211 115.18C395.231 115.18 396.041 115.444 396.641 115.972C397.241 116.488 397.631 117.136 397.811 117.916L396.371 118.042C396.215 117.538 395.963 117.148 395.615 116.872C395.267 116.584 394.883 116.44 394.463 116.44C393.695 116.44 393.071 116.728 392.591 117.304C392.123 117.88 391.889 118.666 391.889 119.662C391.889 120.646 392.117 121.438 392.573 122.038C393.041 122.638 393.617 122.938 394.301 122.938C394.997 122.938 395.513 122.782 395.849 122.47C396.197 122.146 396.371 121.69 396.371 121.102H397.829C397.829 122.026 397.505 122.776 396.857 123.352C396.221 123.916 395.387 124.198 394.355 124.198C393.263 124.198 392.333 123.784 391.565 122.956C390.809 122.128 390.431 121.03 390.431 119.662C390.431 118.282 390.809 117.19 391.565 116.386C392.321 115.582 393.203 115.18 394.211 115.18ZM403.709 115.18C404.909 115.18 405.875 115.57 406.607 116.35C407.351 117.13 407.723 118.246 407.723 119.698C407.723 121.138 407.351 122.248 406.607 123.028C405.875 123.808 404.909 124.198 403.709 124.198C402.509 124.198 401.537 123.808 400.793 123.028C400.061 122.248 399.695 121.138 399.695 119.698C399.695 118.246 400.061 117.13 400.793 116.35C401.537 115.57 402.509 115.18 403.709 115.18ZM406.283 119.698C406.283 118.666 406.067 117.862 405.635 117.286C405.203 116.698 404.567 116.404 403.727 116.404C402.899 116.404 402.263 116.698 401.819 117.286C401.375 117.862 401.153 118.666 401.153 119.698C401.153 120.718 401.363 121.522 401.783 122.11C402.203 122.686 402.827 122.974 403.655 122.974C404.495 122.974 405.143 122.686 405.599 122.11C406.055 121.522 406.283 120.718 406.283 119.698Z" fill="#454545"/>
<path d="M265.716 85.318L268.92 92.266L272.124 85.318H275.058V97H272.916V88.126L269.604 95.722H268.218L264.798 87.874V97H262.674V85.318H265.716ZM281.286 91.888C281.982 91.888 282.786 92.002 283.698 92.23V91.366C283.698 90.754 283.572 90.304 283.32 90.016C283.08 89.716 282.678 89.566 282.114 89.566C281.562 89.566 281.136 89.68 280.836 89.908C280.536 90.124 280.386 90.436 280.386 90.844H278.064C278.064 89.848 278.412 89.128 279.108 88.684C279.816 88.24 280.8 88.018 282.06 88.018C283.86 88.018 285.024 88.648 285.552 89.908C285.732 90.34 285.822 90.85 285.822 91.438V97H283.968L283.806 95.83C283.242 96.778 282.378 97.252 281.214 97.252C280.086 97.252 279.21 96.976 278.586 96.424C278.01 95.896 277.722 95.23 277.722 94.426C277.722 93.61 278.04 92.986 278.676 92.554C279.312 92.11 280.182 91.888 281.286 91.888ZM284.85 85.084L279.828 86.956L279.288 85.624L284.094 83.248L284.85 85.084ZM283.698 93.58C282.99 93.388 282.33 93.292 281.718 93.292C280.566 93.292 279.99 93.676 279.99 94.444C279.99 94.768 280.122 95.05 280.386 95.29C280.65 95.518 281.07 95.632 281.646 95.632C282.234 95.632 282.714 95.44 283.086 95.056C283.47 94.66 283.674 94.168 283.698 93.58ZM290.124 94.336C290.148 95.164 290.754 95.578 291.942 95.578C292.398 95.578 292.77 95.482 293.058 95.29C293.358 95.086 293.508 94.852 293.508 94.588C293.508 94.324 293.418 94.12 293.238 93.976C293.058 93.832 292.776 93.7 292.392 93.58L290.484 92.896C289.068 92.404 288.36 91.6 288.36 90.484C288.36 89.74 288.69 89.146 289.35 88.702C290.022 88.246 290.916 88.018 292.032 88.018C293.16 88.018 294.024 88.264 294.624 88.756C295.236 89.248 295.554 89.866 295.578 90.61H293.58C293.556 90.322 293.418 90.094 293.166 89.926C292.914 89.758 292.554 89.674 292.086 89.674C291.618 89.674 291.252 89.77 290.988 89.962C290.736 90.142 290.61 90.352 290.61 90.592C290.61 91.012 290.964 91.324 291.672 91.528L293.742 92.302C294.426 92.53 294.948 92.824 295.308 93.184C295.68 93.532 295.866 93.988 295.866 94.552C295.866 95.272 295.524 95.896 294.84 96.424C294.132 96.976 293.196 97.252 292.032 97.252C290.868 97.252 289.932 97 289.224 96.496C288.516 95.98 288.156 95.26 288.144 94.336H290.124ZM303.917 85.318L306.761 94.336L309.641 85.318H311.873L307.859 97H305.627L301.667 85.318H303.917ZM319.278 89.296C319.578 89.68 319.8 90.124 319.944 90.628C320.1 91.132 320.178 91.594 320.178 92.014C320.178 92.434 320.154 92.812 320.106 93.148H314.454C314.478 93.856 314.652 94.432 314.976 94.876C315.3 95.32 315.792 95.542 316.452 95.542C317.328 95.542 317.85 95.158 318.018 94.39H320.16C320.016 95.266 319.614 95.956 318.954 96.46C318.27 96.988 317.436 97.252 316.452 97.252C315.3 97.252 314.334 96.832 313.554 95.992C312.75 95.116 312.348 93.994 312.348 92.626C312.348 91.222 312.75 90.094 313.554 89.242C314.322 88.426 315.288 88.018 316.452 88.018C317.664 88.018 318.606 88.444 319.278 89.296ZM316.47 89.71C315.87 89.71 315.402 89.908 315.066 90.304C314.73 90.688 314.532 91.186 314.472 91.798H318.198C318.198 90.85 317.898 90.214 317.298 89.89C317.07 89.77 316.794 89.71 316.47 89.71ZM324.845 89.98C325.373 88.72 326.165 88.09 327.221 88.09C327.425 88.09 327.683 88.132 327.995 88.216L327.959 90.34C327.623 90.268 327.293 90.232 326.969 90.232C325.553 90.232 324.845 91.21 324.845 93.166V97H322.721V88.234H324.845V89.98ZM335.915 95.65C335.375 96.718 334.547 97.252 333.431 97.252C332.315 97.252 331.379 96.826 330.623 95.974C329.843 95.086 329.453 93.958 329.453 92.59C329.453 91.222 329.825 90.112 330.569 89.26C331.301 88.432 332.213 88.018 333.305 88.018C334.397 88.018 335.219 88.456 335.771 89.332V84.652H337.913V97H336.167L335.915 95.65ZM333.701 89.926C333.101 89.926 332.597 90.172 332.189 90.664C331.793 91.144 331.595 91.792 331.595 92.608C331.595 93.424 331.799 94.084 332.207 94.588C332.615 95.08 333.131 95.326 333.755 95.326C334.271 95.326 334.733 95.122 335.141 94.714C335.561 94.294 335.771 93.766 335.771 93.13V91.996C335.747 91.372 335.537 90.862 335.141 90.466C334.781 90.106 334.301 89.926 333.701 89.926ZM347.368 89.296C347.668 89.68 347.89 90.124 348.034 90.628C348.19 91.132 348.268 91.594 348.268 92.014C348.268 92.434 348.244 92.812 348.196 93.148H342.544C342.568 93.856 342.742 94.432 343.066 94.876C343.39 95.32 343.882 95.542 344.542 95.542C345.418 95.542 345.94 95.158 346.108 94.39H348.25C348.106 95.266 347.704 95.956 347.044 96.46C346.36 96.988 345.526 97.252 344.542 97.252C343.39 97.252 342.424 96.832 341.644 95.992C340.84 95.116 340.438 93.994 340.438 92.626C340.438 91.222 340.84 90.094 341.644 89.242C342.412 88.426 343.378 88.018 344.542 88.018C345.754 88.018 346.696 88.444 347.368 89.296ZM344.56 89.71C343.96 89.71 343.492 89.908 343.156 90.304C342.82 90.688 342.622 91.186 342.562 91.798H346.288C346.288 90.85 345.988 90.214 345.388 89.89C345.16 89.77 344.884 89.71 344.56 89.71ZM359.557 85.084C360.277 85.084 360.901 85.174 361.429 85.354C361.957 85.522 362.413 85.762 362.797 86.074C363.553 86.686 364.045 87.544 364.273 88.648L362.005 89.062C361.813 88.45 361.513 87.958 361.105 87.586C360.709 87.202 360.211 87.01 359.611 87.01C358.795 87.01 358.135 87.352 357.631 88.036C357.091 88.78 356.821 89.812 356.821 91.132C356.821 92.44 357.061 93.466 357.541 94.21C358.021 94.942 358.675 95.308 359.503 95.308C360.331 95.308 360.955 95.11 361.375 94.714C361.795 94.306 362.005 93.784 362.005 93.148H364.291C364.291 94.456 363.871 95.47 363.031 96.19C362.203 96.898 361.063 97.252 359.611 97.252C358.063 97.252 356.833 96.712 355.921 95.632C354.997 94.528 354.535 93.028 354.535 91.132C354.535 89.212 355.009 87.712 355.957 86.632C356.869 85.6 358.069 85.084 359.557 85.084ZM370.21 88.018C370.798 88.018 371.35 88.114 371.866 88.306C372.382 88.486 372.826 88.768 373.198 89.152C374.026 89.992 374.44 91.156 374.44 92.644C374.44 94.108 374.026 95.26 373.198 96.1C372.454 96.868 371.458 97.252 370.21 97.252C368.962 97.252 367.954 96.868 367.186 96.1C366.358 95.272 365.944 94.12 365.944 92.644C365.944 91.144 366.358 89.98 367.186 89.152C367.942 88.396 368.95 88.018 370.21 88.018ZM372.316 92.626C372.316 91.702 372.136 91.012 371.776 90.556C371.416 90.088 370.912 89.854 370.264 89.854C369.628 89.854 369.106 90.088 368.698 90.556C368.29 91.012 368.086 91.702 368.086 92.626C368.086 93.55 368.266 94.246 368.626 94.714C368.998 95.17 369.502 95.398 370.138 95.398C370.774 95.398 371.296 95.17 371.704 94.714C372.112 94.246 372.316 93.55 372.316 92.626ZM384.743 89.908C385.307 88.648 386.297 88.018 387.713 88.018C388.757 88.018 389.567 88.372 390.143 89.08C390.695 89.752 390.971 90.688 390.971 91.888V97H388.829V91.888C388.829 91.24 388.673 90.754 388.361 90.43C388.049 90.094 387.611 89.926 387.047 89.926C386.483 89.926 386.021 90.172 385.661 90.664C385.301 91.156 385.109 91.9 385.085 92.896V97H382.961V91.888C382.961 91.24 382.805 90.754 382.493 90.43C382.181 90.094 381.743 89.926 381.179 89.926C380.615 89.926 380.129 90.178 379.721 90.682C379.325 91.186 379.115 91.942 379.091 92.95V97H376.967V88.252H378.821L379.055 89.764C379.631 88.6 380.555 88.018 381.827 88.018C382.559 88.018 383.165 88.186 383.645 88.522C384.137 88.858 384.503 89.32 384.743 89.908ZM399.867 95.416C399.315 96.58 398.427 97.162 397.203 97.162C395.655 97.162 394.635 96.556 394.143 95.344C393.963 94.924 393.873 94.414 393.873 93.814V88.234H395.997V93.598C395.997 94.174 396.135 94.606 396.411 94.894C396.687 95.17 397.023 95.308 397.419 95.308C397.827 95.308 398.169 95.254 398.445 95.146C398.721 95.026 398.961 94.852 399.165 94.624C399.609 94.108 399.843 93.418 399.867 92.554V88.234H401.991V97H399.867V95.416ZM407.426 89.764C408.002 88.6 408.926 88.018 410.198 88.018C411.278 88.018 412.088 88.372 412.628 89.08C413.18 89.788 413.456 90.724 413.456 91.888V97H411.332V91.888C411.332 91.24 411.176 90.754 410.864 90.43C410.552 90.094 410.114 89.926 409.55 89.926C408.986 89.926 408.5 90.178 408.092 90.682C407.696 91.186 407.486 91.942 407.462 92.95V97H405.338V88.252H407.192L407.426 89.764ZM416.733 88.234H418.857V97H416.733V88.234ZM416.481 85.426C416.481 85.042 416.595 84.742 416.823 84.526C417.051 84.298 417.375 84.184 417.795 84.184C418.203 84.184 418.521 84.298 418.749 84.526C418.989 84.742 419.109 85.042 419.109 85.426C419.109 85.81 418.989 86.116 418.749 86.344C418.521 86.56 418.203 86.668 417.795 86.668C417.375 86.668 417.051 86.56 416.823 86.344C416.595 86.116 416.481 85.81 416.481 85.426ZM425.789 88.018C426.341 88.018 426.833 88.114 427.265 88.306C427.709 88.486 428.081 88.726 428.381 89.026C428.981 89.602 429.335 90.328 429.443 91.204L427.301 91.258C427.205 90.874 427.025 90.556 426.761 90.304C426.509 90.052 426.215 89.926 425.879 89.926C425.543 89.926 425.255 89.98 425.015 90.088C424.775 90.184 424.565 90.34 424.385 90.556C423.977 91.06 423.773 91.756 423.773 92.644C423.773 93.532 423.965 94.204 424.349 94.66C424.733 95.104 425.195 95.326 425.735 95.326C426.287 95.326 426.683 95.2 426.923 94.948C427.175 94.684 427.301 94.33 427.301 93.886H429.443C429.443 94.846 429.125 95.644 428.489 96.28C427.841 96.928 426.935 97.252 425.771 97.252C424.619 97.252 423.653 96.832 422.873 95.992C422.045 95.092 421.631 93.97 421.631 92.626C421.631 91.21 422.045 90.076 422.873 89.224C423.653 88.42 424.625 88.018 425.789 88.018ZM434.884 91.888C435.58 91.888 436.384 92.002 437.296 92.23V91.366C437.296 90.754 437.17 90.304 436.918 90.016C436.678 89.716 436.276 89.566 435.712 89.566C435.16 89.566 434.734 89.68 434.434 89.908C434.134 90.124 433.984 90.436 433.984 90.844H431.662C431.662 89.848 432.01 89.128 432.706 88.684C433.414 88.24 434.398 88.018 435.658 88.018C437.458 88.018 438.622 88.648 439.15 89.908C439.33 90.34 439.42 90.85 439.42 91.438V97H437.566L437.404 95.83C436.84 96.778 435.976 97.252 434.812 97.252C433.684 97.252 432.808 96.976 432.184 96.424C431.608 95.896 431.32 95.23 431.32 94.426C431.32 93.61 431.638 92.986 432.274 92.554C432.91 92.11 433.78 91.888 434.884 91.888ZM437.296 93.58C436.588 93.388 435.928 93.292 435.316 93.292C434.164 93.292 433.588 93.676 433.588 94.444C433.588 94.768 433.72 95.05 433.984 95.29C434.248 95.518 434.668 95.632 435.244 95.632C435.832 95.632 436.312 95.44 436.684 95.056C437.068 94.66 437.272 94.168 437.296 93.58ZM445.846 88.018C446.398 88.018 446.89 88.114 447.322 88.306C447.766 88.486 448.138 88.726 448.438 89.026C449.038 89.602 449.392 90.328 449.5 91.204L447.358 91.258C447.262 90.874 447.082 90.556 446.818 90.304C446.566 90.052 446.272 89.926 445.936 89.926C445.6 89.926 445.312 89.98 445.072 90.088C444.832 90.184 444.622 90.34 444.442 90.556C444.034 91.06 443.83 91.756 443.83 92.644C443.83 93.532 444.022 94.204 444.406 94.66C444.79 95.104 445.252 95.326 445.792 95.326C446.344 95.326 446.74 95.2 446.98 94.948C447.232 94.684 447.358 94.33 447.358 93.886H449.5C449.5 94.846 449.182 95.644 448.546 96.28C447.898 96.928 446.992 97.252 445.828 97.252C444.676 97.252 443.71 96.832 442.93 95.992C442.102 95.092 441.688 93.97 441.688 92.626C441.688 91.21 442.102 90.076 442.93 89.224C443.71 88.42 444.682 88.018 445.846 88.018ZM452.241 88.234H454.365V97H452.241V88.234ZM451.989 85.426C451.989 85.042 452.103 84.742 452.331 84.526C452.559 84.298 452.883 84.184 453.303 84.184C453.711 84.184 454.029 84.298 454.257 84.526C454.497 84.742 454.617 85.042 454.617 85.426C454.617 85.81 454.497 86.116 454.257 86.344C454.029 86.56 453.711 86.668 453.303 86.668C452.883 86.668 452.559 86.56 452.331 86.344C452.103 86.116 451.989 85.81 451.989 85.426ZM461.405 88.018C461.993 88.018 462.545 88.114 463.061 88.306C463.577 88.486 464.021 88.768 464.393 89.152C465.221 89.992 465.635 91.156 465.635 92.644C465.635 94.108 465.221 95.26 464.393 96.1C463.649 96.868 462.653 97.252 461.405 97.252C460.157 97.252 459.149 96.868 458.381 96.1C457.553 95.272 457.139 94.12 457.139 92.644C457.139 91.144 457.553 89.98 458.381 89.152C459.137 88.396 460.145 88.018 461.405 88.018ZM463.511 92.626C463.511 91.702 463.331 91.012 462.971 90.556C462.611 90.088 462.107 89.854 461.459 89.854C460.823 89.854 460.301 90.088 459.893 90.556C459.485 91.012 459.281 91.702 459.281 92.626C459.281 93.55 459.461 94.246 459.821 94.714C460.193 95.17 460.697 95.398 461.333 95.398C461.969 95.398 462.491 95.17 462.899 94.714C463.307 94.246 463.511 93.55 463.511 92.626ZM470.25 89.764C470.826 88.6 471.75 88.018 473.022 88.018C474.102 88.018 474.912 88.372 475.452 89.08C476.004 89.788 476.28 90.724 476.28 91.888V97H474.156V91.888C474.156 91.24 474 90.754 473.688 90.43C473.376 90.094 472.938 89.926 472.374 89.926C471.81 89.926 471.324 90.178 470.916 90.682C470.52 91.186 470.31 91.942 470.286 92.95V97H468.162V88.252H470.016L470.25 89.764ZM485.479 89.296C485.779 89.68 486.001 90.124 486.145 90.628C486.301 91.132 486.379 91.594 486.379 92.014C486.379 92.434 486.355 92.812 486.307 93.148H480.655C480.679 93.856 480.853 94.432 481.177 94.876C481.501 95.32 481.993 95.542 482.653 95.542C483.529 95.542 484.051 95.158 484.219 94.39H486.361C486.217 95.266 485.815 95.956 485.155 96.46C484.471 96.988 483.637 97.252 482.653 97.252C481.501 97.252 480.535 96.832 479.755 95.992C478.951 95.116 478.549 93.994 478.549 92.626C478.549 91.222 478.951 90.094 479.755 89.242C480.523 88.426 481.489 88.018 482.653 88.018C483.865 88.018 484.807 88.444 485.479 89.296ZM482.671 89.71C482.071 89.71 481.603 89.908 481.267 90.304C480.931 90.688 480.733 91.186 480.673 91.798H484.399C484.399 90.85 484.099 90.214 483.499 89.89C483.271 89.77 482.995 89.71 482.671 89.71ZM490.11 94.336C490.134 95.164 490.74 95.578 491.928 95.578C492.384 95.578 492.756 95.482 493.044 95.29C493.344 95.086 493.494 94.852 493.494 94.588C493.494 94.324 493.404 94.12 493.224 93.976C493.044 93.832 492.762 93.7 492.378 93.58L490.47 92.896C489.054 92.404 488.346 91.6 488.346 90.484C488.346 89.74 488.676 89.146 489.336 88.702C490.008 88.246 490.902 88.018 492.018 88.018C493.146 88.018 494.01 88.264 494.61 88.756C495.222 89.248 495.54 89.866 495.564 90.61H493.566C493.542 90.322 493.404 90.094 493.152 89.926C492.9 89.758 492.54 89.674 492.072 89.674C491.604 89.674 491.238 89.77 490.974 89.962C490.722 90.142 490.596 90.352 490.596 90.592C490.596 91.012 490.95 91.324 491.658 91.528L493.728 92.302C494.412 92.53 494.934 92.824 495.294 93.184C495.666 93.532 495.852 93.988 495.852 94.552C495.852 95.272 495.51 95.896 494.826 96.424C494.118 96.976 493.182 97.252 492.018 97.252C490.854 97.252 489.918 97 489.21 96.496C488.502 95.98 488.142 95.26 488.13 94.336H490.11Z" fill="black"/>
<path d="M403.13 194.678C404.834 194.678 406.196 195.194 407.216 196.226C408.248 197.246 408.764 198.62 408.764 200.348C408.764 202.064 408.248 203.438 407.216 204.47C406.196 205.49 404.834 206 403.13 206H399.8V194.678H403.13ZM401.222 204.758H403.13C404.39 204.758 405.392 204.344 406.136 203.516C406.88 202.676 407.252 201.614 407.252 200.33C407.252 199.046 406.874 197.996 406.118 197.18C405.374 196.352 404.378 195.938 403.13 195.938H401.222V204.758ZM411.808 197.378H413.23V206H411.808V197.378ZM412.51 195.362C412.222 195.362 411.994 195.284 411.826 195.128C411.67 194.96 411.592 194.744 411.592 194.48C411.592 194.204 411.67 193.988 411.826 193.832C411.994 193.664 412.222 193.58 412.51 193.58C412.798 193.58 413.026 193.664 413.194 193.832C413.374 193.988 413.464 194.204 413.464 194.48C413.464 194.744 413.374 194.96 413.194 195.128C413.026 195.284 412.798 195.362 412.51 195.362ZM416.647 199.502C416.647 198.794 416.947 198.23 417.547 197.81C418.159 197.39 418.981 197.18 420.013 197.18C421.045 197.18 421.849 197.396 422.425 197.828C423.013 198.26 423.319 198.806 423.343 199.466H421.957C421.849 198.686 421.189 198.296 419.977 198.296C419.389 198.296 418.933 198.428 418.609 198.692C418.297 198.956 418.141 199.244 418.141 199.556C418.141 199.856 418.261 200.114 418.501 200.33C418.741 200.534 419.125 200.714 419.653 200.87L421.381 201.446C422.113 201.674 422.671 201.968 423.055 202.328C423.451 202.676 423.649 203.162 423.649 203.786C423.649 204.398 423.331 204.956 422.695 205.46C422.059 205.952 421.171 206.198 420.031 206.198C418.891 206.198 418.003 205.946 417.367 205.442C416.731 204.926 416.395 204.266 416.359 203.462H417.727C417.751 204.002 417.967 204.41 418.375 204.686C418.795 204.95 419.317 205.082 419.941 205.082C420.565 205.082 421.081 204.95 421.489 204.686C421.897 204.422 422.101 204.11 422.101 203.75C422.101 203.378 421.981 203.096 421.741 202.904C421.501 202.712 421.111 202.544 420.571 202.4L418.897 201.842C417.397 201.398 416.647 200.618 416.647 199.502ZM429.542 205.046C430.73 205.046 431.408 204.524 431.576 203.48H433.034C432.902 204.344 432.518 205.016 431.882 205.496C431.258 205.964 430.478 206.198 429.542 206.198C428.39 206.198 427.454 205.79 426.734 204.974C426.014 204.146 425.654 203.048 425.654 201.68C425.654 200.312 426.014 199.22 426.734 198.404C427.466 197.588 428.432 197.18 429.632 197.18C430.844 197.18 431.744 197.648 432.332 198.584C432.932 199.52 433.142 200.66 432.962 202.004H427.076C427.076 202.892 427.292 203.624 427.724 204.2C428.156 204.764 428.762 205.046 429.542 205.046ZM430.586 198.53C430.31 198.386 429.974 198.314 429.578 198.314C428.846 198.314 428.264 198.566 427.832 199.07C427.412 199.562 427.166 200.18 427.094 200.924H431.684C431.684 199.724 431.318 198.926 430.586 198.53ZM440.12 197.18C438.752 197.18 437.786 197.804 437.222 199.052L437.06 197.396H435.836V206H437.258V201.77C437.282 200.726 437.516 199.91 437.96 199.322C438.404 198.734 438.986 198.44 439.706 198.44C440.426 198.44 440.978 198.65 441.362 199.07C441.758 199.49 441.956 200.114 441.956 200.942V206H443.36V200.942C443.36 199.778 443.072 198.86 442.496 198.188C441.932 197.516 441.14 197.18 440.12 197.18ZM438.284 194.462C437.9 194.462 437.558 194.768 437.258 195.38L436.682 195.038C436.826 194.426 437.036 193.964 437.312 193.652C437.588 193.328 437.882 193.166 438.194 193.166C438.506 193.166 438.866 193.268 439.274 193.472C439.826 193.748 440.18 193.922 440.336 193.994C440.504 194.066 440.666 194.102 440.822 194.102C440.978 194.102 441.14 194.03 441.308 193.886C441.476 193.73 441.62 193.49 441.74 193.166L442.37 193.58C442.238 194.156 442.022 194.6 441.722 194.912C441.434 195.224 441.164 195.38 440.912 195.38C440.672 195.38 440.45 195.344 440.246 195.272C440.042 195.2 439.76 195.074 439.4 194.894C439.04 194.702 438.794 194.582 438.662 194.534C438.542 194.486 438.416 194.462 438.284 194.462ZM452.027 200.42C452.027 199.64 451.865 199.082 451.541 198.746C451.217 198.41 450.743 198.242 450.119 198.242C449.507 198.242 449.009 198.368 448.625 198.62C448.253 198.86 448.067 199.244 448.067 199.772H446.501C446.501 198.452 447.209 197.636 448.625 197.324C449.057 197.228 449.525 197.18 450.029 197.18C451.097 197.18 451.931 197.45 452.531 197.99C453.131 198.53 453.431 199.352 453.431 200.456V206H452.207L452.063 204.56C451.535 205.652 450.581 206.198 449.201 206.198C448.277 206.198 447.533 205.94 446.969 205.424C446.417 204.908 446.141 204.266 446.141 203.498C446.141 202.73 446.447 202.13 447.059 201.698C447.683 201.266 448.457 201.05 449.381 201.05C450.305 201.05 451.187 201.206 452.027 201.518V200.42ZM452.027 202.418C451.175 202.178 450.431 202.058 449.795 202.058C449.159 202.058 448.643 202.172 448.247 202.4C447.851 202.628 447.653 202.988 447.653 203.48C447.653 204.56 448.265 205.1 449.489 205.1C450.185 205.1 450.779 204.854 451.271 204.362C451.775 203.858 452.027 203.21 452.027 202.418ZM462.405 198.674V193.742H463.809V206H462.657L462.477 204.56C462.201 205.1 461.835 205.508 461.379 205.784C460.923 206.06 460.425 206.198 459.885 206.198C458.793 206.198 457.875 205.778 457.131 204.938C456.399 204.098 456.033 203.006 456.033 201.662C456.033 200.306 456.393 199.22 457.113 198.404C457.845 197.588 458.763 197.18 459.867 197.18C460.983 197.18 461.829 197.678 462.405 198.674ZM459.957 198.44C459.261 198.44 458.673 198.734 458.193 199.322C457.725 199.91 457.491 200.696 457.491 201.68C457.491 202.664 457.731 203.456 458.211 204.056C458.691 204.644 459.267 204.938 459.939 204.938C460.611 204.938 461.181 204.716 461.649 204.272C462.129 203.816 462.381 203.21 462.405 202.454V201.05C462.405 200.246 462.171 199.61 461.703 199.142C461.235 198.674 460.653 198.44 459.957 198.44ZM470.555 197.18C471.755 197.18 472.721 197.57 473.453 198.35C474.197 199.13 474.569 200.246 474.569 201.698C474.569 203.138 474.197 204.248 473.453 205.028C472.721 205.808 471.755 206.198 470.555 206.198C469.355 206.198 468.383 205.808 467.639 205.028C466.907 204.248 466.541 203.138 466.541 201.698C466.541 200.246 466.907 199.13 467.639 198.35C468.383 197.57 469.355 197.18 470.555 197.18ZM473.129 201.698C473.129 200.666 472.913 199.862 472.481 199.286C472.049 198.698 471.413 198.404 470.573 198.404C469.745 198.404 469.109 198.698 468.665 199.286C468.221 199.862 467.999 200.666 467.999 201.698C467.999 202.718 468.209 203.522 468.629 204.11C469.049 204.686 469.673 204.974 470.501 204.974C471.341 204.974 471.989 204.686 472.445 204.11C472.901 203.522 473.129 202.718 473.129 201.698ZM480.795 198.602C479.439 198.602 478.737 199.67 478.689 201.806V206H477.267V197.378H478.689V199.034C479.121 197.834 479.883 197.234 480.975 197.234C481.323 197.234 481.653 197.288 481.965 197.396L481.893 198.782C481.533 198.662 481.167 198.602 480.795 198.602ZM489.599 194.678V201.914C489.599 202.97 489.863 203.732 490.391 204.2C490.919 204.668 491.615 204.902 492.479 204.902C493.343 204.902 494.039 204.668 494.567 204.2C495.095 203.732 495.359 202.97 495.359 201.914V194.678H496.781V201.914C496.781 203.33 496.391 204.398 495.611 205.118C494.831 205.838 493.781 206.198 492.461 206.198C491.153 206.198 490.109 205.838 489.329 205.118C488.561 204.398 488.177 203.33 488.177 201.914V194.678H489.599ZM509.063 206H507.299L504.023 201.482L500.981 206H499.253L503.249 200.384L499.235 194.678H500.945L504.185 199.304L507.173 194.678H508.883L504.977 200.366L509.063 206ZM515.482 192.842H516.922L512.386 207.314H510.964L515.482 192.842ZM520.695 194.678V201.914C520.695 202.97 520.959 203.732 521.487 204.2C522.015 204.668 522.711 204.902 523.575 204.902C524.439 204.902 525.135 204.668 525.663 204.2C526.191 203.732 526.455 202.97 526.455 201.914V194.678H527.877V201.914C527.877 203.33 527.487 204.398 526.707 205.118C525.927 205.838 524.877 206.198 523.557 206.198C522.249 206.198 521.205 205.838 520.425 205.118C519.657 204.398 519.273 203.33 519.273 201.914V194.678H520.695ZM531.302 194.678H532.724V206H531.302V194.678Z" fill="#454545"/>
<path d="M402.374 167.318H405.038L408.872 179H406.622L405.812 176.48H401.474L400.646 179H398.396L402.374 167.318ZM402.014 174.878H405.29L403.67 169.856L402.014 174.878ZM412.13 176.336C412.154 177.164 412.76 177.578 413.948 177.578C414.404 177.578 414.776 177.482 415.064 177.29C415.364 177.086 415.514 176.852 415.514 176.588C415.514 176.324 415.424 176.12 415.244 175.976C415.064 175.832 414.782 175.7 414.398 175.58L412.49 174.896C411.074 174.404 410.366 173.6 410.366 172.484C410.366 171.74 410.696 171.146 411.356 170.702C412.028 170.246 412.922 170.018 414.038 170.018C415.166 170.018 416.03 170.264 416.63 170.756C417.242 171.248 417.56 171.866 417.584 172.61H415.586C415.562 172.322 415.424 172.094 415.172 171.926C414.92 171.758 414.56 171.674 414.092 171.674C413.624 171.674 413.258 171.77 412.994 171.962C412.742 172.142 412.616 172.352 412.616 172.592C412.616 173.012 412.97 173.324 413.678 173.528L415.748 174.302C416.432 174.53 416.954 174.824 417.314 175.184C417.686 175.532 417.872 175.988 417.872 176.552C417.872 177.272 417.53 177.896 416.846 178.424C416.138 178.976 415.202 179.252 414.038 179.252C412.874 179.252 411.938 179 411.23 178.496C410.522 177.98 410.162 177.26 410.15 176.336H412.13ZM420.614 170.234H422.738V179H420.614V170.234ZM420.362 167.426C420.362 167.042 420.476 166.742 420.704 166.526C420.932 166.298 421.256 166.184 421.676 166.184C422.084 166.184 422.402 166.298 422.63 166.526C422.87 166.742 422.99 167.042 422.99 167.426C422.99 167.81 422.87 168.116 422.63 168.344C422.402 168.56 422.084 168.668 421.676 168.668C421.256 168.668 420.932 168.56 420.704 168.344C420.476 168.116 420.362 167.81 420.362 167.426ZM434.116 171.908C434.68 170.648 435.67 170.018 437.086 170.018C438.13 170.018 438.94 170.372 439.516 171.08C440.068 171.752 440.344 172.688 440.344 173.888V179H438.202V173.888C438.202 173.24 438.046 172.754 437.734 172.43C437.422 172.094 436.984 171.926 436.42 171.926C435.856 171.926 435.394 172.172 435.034 172.664C434.674 173.156 434.482 173.9 434.458 174.896V179H432.334V173.888C432.334 173.24 432.178 172.754 431.866 172.43C431.554 172.094 431.116 171.926 430.552 171.926C429.988 171.926 429.502 172.178 429.094 172.682C428.698 173.186 428.488 173.942 428.464 174.95V179H426.34V170.252H428.194L428.428 171.764C429.004 170.6 429.928 170.018 431.2 170.018C431.932 170.018 432.538 170.186 433.018 170.522C433.51 170.858 433.876 171.32 434.116 171.908ZM446.864 170.018C447.452 170.018 448.004 170.114 448.52 170.306C449.036 170.486 449.48 170.768 449.852 171.152C450.68 171.992 451.094 173.156 451.094 174.644C451.094 176.108 450.68 177.26 449.852 178.1C449.108 178.868 448.112 179.252 446.864 179.252C445.616 179.252 444.608 178.868 443.84 178.1C443.012 177.272 442.598 176.12 442.598 174.644C442.598 173.144 443.012 171.98 443.84 171.152C444.596 170.396 445.604 170.018 446.864 170.018ZM448.97 174.626C448.97 173.702 448.79 173.012 448.43 172.556C448.07 172.088 447.566 171.854 446.918 171.854C446.282 171.854 445.76 172.088 445.352 172.556C444.944 173.012 444.74 173.702 444.74 174.626C444.74 175.55 444.92 176.246 445.28 176.714C445.652 177.17 446.156 177.398 446.792 177.398C447.428 177.398 447.95 177.17 448.358 176.714C448.766 176.246 448.97 175.55 448.97 174.626ZM454.611 170.252L456.609 176.894L458.625 170.252H461.073L457.815 179H455.421L452.163 170.252H454.611ZM471.702 167.084C472.422 167.084 473.046 167.174 473.574 167.354C474.102 167.522 474.558 167.762 474.942 168.074C475.698 168.686 476.19 169.544 476.418 170.648L474.15 171.062C473.958 170.45 473.658 169.958 473.25 169.586C472.854 169.202 472.356 169.01 471.756 169.01C470.94 169.01 470.28 169.352 469.776 170.036C469.236 170.78 468.966 171.812 468.966 173.132C468.966 174.44 469.206 175.466 469.686 176.21C470.166 176.942 470.82 177.308 471.648 177.308C472.476 177.308 473.1 177.11 473.52 176.714C473.94 176.306 474.15 175.784 474.15 175.148H476.436C476.436 176.456 476.016 177.47 475.176 178.19C474.348 178.898 473.208 179.252 471.756 179.252C470.208 179.252 468.978 178.712 468.066 177.632C467.142 176.528 466.68 175.028 466.68 173.132C466.68 171.212 467.154 169.712 468.102 168.632C469.014 167.6 470.214 167.084 471.702 167.084ZM482.354 170.018C482.942 170.018 483.494 170.114 484.01 170.306C484.526 170.486 484.97 170.768 485.342 171.152C486.17 171.992 486.584 173.156 486.584 174.644C486.584 176.108 486.17 177.26 485.342 178.1C484.598 178.868 483.602 179.252 482.354 179.252C481.106 179.252 480.098 178.868 479.33 178.1C478.502 177.272 478.088 176.12 478.088 174.644C478.088 173.144 478.502 171.98 479.33 171.152C480.086 170.396 481.094 170.018 482.354 170.018ZM484.46 174.626C484.46 173.702 484.28 173.012 483.92 172.556C483.56 172.088 483.056 171.854 482.408 171.854C481.772 171.854 481.25 172.088 480.842 172.556C480.434 173.012 480.23 173.702 480.23 174.626C480.23 175.55 480.41 176.246 480.77 176.714C481.142 177.17 481.646 177.398 482.282 177.398C482.918 177.398 483.44 177.17 483.848 176.714C484.256 176.246 484.46 175.55 484.46 174.626ZM491.2 171.764C491.776 170.6 492.7 170.018 493.972 170.018C495.052 170.018 495.862 170.372 496.402 171.08C496.954 171.788 497.23 172.724 497.23 173.888V179H495.106V173.888C495.106 173.24 494.95 172.754 494.638 172.43C494.326 172.094 493.888 171.926 493.324 171.926C492.76 171.926 492.274 172.178 491.866 172.682C491.47 173.186 491.26 173.942 491.236 174.95V179H489.112V170.252H490.966L491.2 171.764ZM501.514 176.336C501.538 177.164 502.144 177.578 503.332 177.578C503.788 177.578 504.16 177.482 504.448 177.29C504.748 177.086 504.898 176.852 504.898 176.588C504.898 176.324 504.808 176.12 504.628 175.976C504.448 175.832 504.166 175.7 503.782 175.58L501.874 174.896C500.458 174.404 499.75 173.6 499.75 172.484C499.75 171.74 500.08 171.146 500.74 170.702C501.412 170.246 502.306 170.018 503.422 170.018C504.55 170.018 505.414 170.264 506.014 170.756C506.626 171.248 506.944 171.866 506.968 172.61H504.97C504.946 172.322 504.808 172.094 504.556 171.926C504.304 171.758 503.944 171.674 503.476 171.674C503.008 171.674 502.642 171.77 502.378 171.962C502.126 172.142 502 172.352 502 172.592C502 173.012 502.354 173.324 503.062 173.528L505.132 174.302C505.816 174.53 506.338 174.824 506.698 175.184C507.07 175.532 507.256 175.988 507.256 176.552C507.256 177.272 506.914 177.896 506.23 178.424C505.522 178.976 504.586 179.252 503.422 179.252C502.258 179.252 501.322 179 500.614 178.496C499.906 177.98 499.546 177.26 499.534 176.336H501.514ZM515.633 177.416C515.081 178.58 514.193 179.162 512.969 179.162C511.421 179.162 510.401 178.556 509.909 177.344C509.729 176.924 509.639 176.414 509.639 175.814V170.234H511.763V175.598C511.763 176.174 511.901 176.606 512.177 176.894C512.453 177.17 512.789 177.308 513.185 177.308C513.593 177.308 513.935 177.254 514.211 177.146C514.487 177.026 514.727 176.852 514.931 176.624C515.375 176.108 515.609 175.418 515.633 174.554V170.234H517.757V179H515.633V177.416ZM521.104 166.652H523.228V179H521.104V166.652ZM531.502 178.784C530.71 179.096 530.086 179.252 529.63 179.252C529.174 179.252 528.772 179.198 528.424 179.09C528.088 178.982 527.788 178.82 527.524 178.604C526.972 178.112 526.696 177.434 526.696 176.57V171.674H525.472V170.252H526.696V167.948H528.82V170.252H531.196V171.674H528.82V176.498C528.82 177.218 529.162 177.578 529.846 177.578C530.194 177.578 530.644 177.482 531.196 177.29L531.502 178.784ZM537.11 170.018C537.698 170.018 538.25 170.114 538.766 170.306C539.282 170.486 539.726 170.768 540.098 171.152C540.926 171.992 541.34 173.156 541.34 174.644C541.34 176.108 540.926 177.26 540.098 178.1C539.354 178.868 538.358 179.252 537.11 179.252C535.862 179.252 534.854 178.868 534.086 178.1C533.258 177.272 532.844 176.12 532.844 174.644C532.844 173.144 533.258 171.98 534.086 171.152C534.842 170.396 535.85 170.018 537.11 170.018ZM539.216 174.626C539.216 173.702 539.036 173.012 538.676 172.556C538.316 172.088 537.812 171.854 537.164 171.854C536.528 171.854 536.006 172.088 535.598 172.556C535.19 173.012 534.986 173.702 534.986 174.626C534.986 175.55 535.166 176.246 535.526 176.714C535.898 177.17 536.402 177.398 537.038 177.398C537.674 177.398 538.196 177.17 538.604 176.714C539.012 176.246 539.216 175.55 539.216 174.626ZM545.991 171.98C546.519 170.72 547.311 170.09 548.367 170.09C548.571 170.09 548.829 170.132 549.141 170.216L549.105 172.34C548.769 172.268 548.439 172.232 548.115 172.232C546.699 172.232 545.991 173.21 545.991 175.166V179H543.867V170.234H545.991V171.98ZM557.458 171.296C557.758 171.68 557.98 172.124 558.124 172.628C558.28 173.132 558.358 173.594 558.358 174.014C558.358 174.434 558.334 174.812 558.286 175.148H552.634C552.658 175.856 552.832 176.432 553.156 176.876C553.48 177.32 553.972 177.542 554.632 177.542C555.508 177.542 556.03 177.158 556.198 176.39H558.34C558.196 177.266 557.794 177.956 557.134 178.46C556.45 178.988 555.616 179.252 554.632 179.252C553.48 179.252 552.514 178.832 551.734 177.992C550.93 177.116 550.528 175.994 550.528 174.626C550.528 173.222 550.93 172.094 551.734 171.242C552.502 170.426 553.468 170.018 554.632 170.018C555.844 170.018 556.786 170.444 557.458 171.296ZM554.65 171.71C554.05 171.71 553.582 171.908 553.246 172.304C552.91 172.688 552.712 173.186 552.652 173.798H556.378C556.378 172.85 556.078 172.214 555.478 171.89C555.25 171.77 554.974 171.71 554.65 171.71ZM562.089 176.336C562.113 177.164 562.719 177.578 563.907 177.578C564.363 177.578 564.735 177.482 565.023 177.29C565.323 177.086 565.473 176.852 565.473 176.588C565.473 176.324 565.383 176.12 565.203 175.976C565.023 175.832 564.741 175.7 564.357 175.58L562.449 174.896C561.033 174.404 560.325 173.6 560.325 172.484C560.325 171.74 560.655 171.146 561.315 170.702C561.987 170.246 562.881 170.018 563.997 170.018C565.125 170.018 565.989 170.264 566.589 170.756C567.201 171.248 567.519 171.866 567.543 172.61H565.545C565.521 172.322 565.383 172.094 565.131 171.926C564.879 171.758 564.519 171.674 564.051 171.674C563.583 171.674 563.217 171.77 562.953 171.962C562.701 172.142 562.575 172.352 562.575 172.592C562.575 173.012 562.929 173.324 563.637 173.528L565.707 174.302C566.391 174.53 566.913 174.824 567.273 175.184C567.645 175.532 567.831 175.988 567.831 176.552C567.831 177.272 567.489 177.896 566.805 178.424C566.097 178.976 565.161 179.252 563.997 179.252C562.833 179.252 561.897 179 561.189 178.496C560.481 177.98 560.121 177.26 560.109 176.336H562.089Z" fill="black"/>
<path d="M30.536 37.452C30.536 38.4133 30.3167 39.104 29.878 39.524C29.4487 39.944 28.898 40.154 28.226 40.154C27.554 40.154 26.8493 39.958 26.112 39.566V38.418C26.7653 38.866 27.3767 39.09 27.946 39.09C28.5247 39.09 28.9167 38.95 29.122 38.67C29.3273 38.39 29.43 37.984 29.43 37.452V31.194H30.536V37.452ZM33.9842 31.194V36.822C33.9842 37.6433 34.1895 38.236 34.6002 38.6C35.0108 38.964 35.5522 39.146 36.2242 39.146C36.8962 39.146 37.4375 38.964 37.8482 38.6C38.2588 38.236 38.4642 37.6433 38.4642 36.822V31.194H39.5702V36.822C39.5702 37.9233 39.2668 38.754 38.6602 39.314C38.0535 39.874 37.2368 40.154 36.2102 40.154C35.1928 40.154 34.3808 39.874 33.7742 39.314C33.1768 38.754 32.8782 37.9233 32.8782 36.822V31.194H33.9842ZM43.3403 39.034H47.2603V40H42.2343V31.194H43.3403V39.034ZM51.2371 35.45H55.0451V36.402H51.2371V35.45ZM62.9119 31.194C64.2372 31.194 65.2965 31.5953 66.0899 32.398C66.8925 33.1913 67.2939 34.26 67.2939 35.604C67.2939 36.9387 66.8925 38.0073 66.0899 38.81C65.2965 39.6033 64.2372 40 62.9119 40H60.3219V31.194H62.9119ZM61.4279 39.034H62.9119C63.8919 39.034 64.6712 38.712 65.2499 38.068C65.8285 37.4147 66.1179 36.5887 66.1179 35.59C66.1179 34.5913 65.8239 33.7747 65.2359 33.14C64.6572 32.496 63.8825 32.174 62.9119 32.174H61.4279V39.034ZM69.5917 31.194H70.6977V40H69.5917V31.194ZM76.5676 31.04C77.5102 31.04 78.2662 31.278 78.8356 31.754C79.4142 32.2207 79.8109 32.832 80.0256 33.588L78.8356 33.826C78.6489 33.2753 78.3549 32.8413 77.9536 32.524C77.5616 32.1973 77.0996 32.034 76.5676 32.034C75.8302 32.034 75.2189 32.342 74.7336 32.958C74.2482 33.574 74.0056 34.4327 74.0056 35.534C74.0056 36.626 74.2202 37.5033 74.6496 38.166C75.0882 38.8287 75.7276 39.16 76.5676 39.16C77.2676 39.16 77.8182 38.978 78.2196 38.614C78.6302 38.2407 78.8356 37.7507 78.8356 37.144H80.0256C80.0256 38.068 79.7082 38.8007 79.0736 39.342C78.4482 39.8833 77.5849 40.154 76.4836 40.154C75.3916 40.154 74.5049 39.734 73.8236 38.894C73.1516 38.054 72.8156 36.9293 72.8156 35.52C72.8156 34.1107 73.1656 33.014 73.8656 32.23C74.5656 31.4367 75.4662 31.04 76.5676 31.04Z" fill="#454545"/>
<path d="M29.204 15.056H35.882V17H27.08V15.002C27.08 13.598 27.578 12.578 28.574 11.942C28.91 11.726 29.3 11.534 29.744 11.366L32.138 10.448C32.666 10.244 33.05 9.992 33.29 9.692C33.542 9.38 33.668 8.996 33.668 8.54C33.668 8.084 33.506 7.706 33.182 7.406C32.858 7.094 32.396 6.938 31.796 6.938C31.196 6.938 30.698 7.082 30.302 7.37C29.918 7.658 29.696 8.084 29.636 8.648H27.278C27.302 7.508 27.74 6.614 28.592 5.966C29.372 5.378 30.422 5.084 31.742 5.084C32.954 5.084 33.956 5.408 34.748 6.056C35.552 6.728 35.954 7.55 35.954 8.522C35.954 9.494 35.708 10.274 35.216 10.862C34.736 11.438 33.986 11.924 32.966 12.32L30.536 13.256C30.068 13.436 29.726 13.64 29.51 13.868C29.306 14.084 29.204 14.366 29.204 14.714V15.056ZM42.5864 5.084C43.3064 5.084 43.9604 5.21 44.5484 5.462C45.1484 5.702 45.6584 6.074 46.0784 6.578C46.9904 7.646 47.4464 9.176 47.4464 11.168C47.4464 13.16 46.9904 14.69 46.0784 15.758C45.2384 16.754 44.0804 17.252 42.6044 17.252C41.1164 17.252 39.9464 16.754 39.0944 15.758C38.1944 14.714 37.7444 13.184 37.7444 11.168C37.7444 9.152 38.1944 7.622 39.0944 6.578C39.9464 5.582 41.1104 5.084 42.5864 5.084ZM45.2504 11.168C45.2504 9.824 45.0164 8.798 44.5484 8.09C44.0924 7.37 43.4384 7.01 42.5864 7.01C41.7464 7.01 41.0924 7.37 40.6244 8.09C40.1684 8.798 39.9404 9.824 39.9404 11.168C39.9404 12.512 40.1684 13.538 40.6244 14.246C41.0924 14.942 41.7464 15.29 42.5864 15.29C43.4384 15.29 44.0924 14.942 44.5484 14.246C45.0164 13.538 45.2504 12.512 45.2504 11.168ZM49.0451 6.2C49.9451 6.068 50.7371 5.75 51.4211 5.246H53.0231V17H50.8991V7.784C50.2871 8.084 49.6691 8.234 49.0451 8.234V6.2ZM63.1467 5.192V12.59H65.1807V14.408H63.1467V17H61.0407V14.408H55.1187V12.806L61.0947 5.192H63.1467ZM57.6387 12.806H61.1487V8.342L57.6387 12.806Z" fill="#08DF5E"/>
<path d="M143.4 111.194H148.818V112.146H144.506V115.1H148.566V116.038H144.506V119.034H148.818V120H143.4V111.194ZM152.563 111.194L156.931 118.264V111.194H158.037V120H156.805L152.367 112.832V120H151.247V111.194H152.563ZM160.845 111.194H166.263V112.146H161.951V115.1H166.011V116.038H161.951V119.034H166.263V120H160.845V111.194ZM171.175 115.45H174.983V116.402H171.175V115.45ZM181.561 111.194L185.929 118.264V111.194H187.035V120H185.803L181.365 112.832V120H180.245V111.194H181.561ZM192.965 111.04C194.104 111.04 195.023 111.432 195.723 112.216C196.433 112.991 196.787 114.125 196.787 115.618C196.787 117.102 196.437 118.231 195.737 119.006C195.037 119.771 194.113 120.154 192.965 120.154C191.817 120.154 190.893 119.767 190.193 118.992C189.503 118.208 189.157 117.079 189.157 115.604C189.157 114.12 189.503 112.991 190.193 112.216C190.893 111.432 191.817 111.04 192.965 111.04ZM192.965 112.034C192.144 112.034 191.495 112.342 191.019 112.958C190.543 113.574 190.305 114.461 190.305 115.618C190.305 116.775 190.543 117.653 191.019 118.25C191.495 118.847 192.144 119.146 192.965 119.146C193.787 119.146 194.435 118.847 194.911 118.25C195.397 117.653 195.639 116.775 195.639 115.618C195.639 114.461 195.397 113.574 194.911 112.958C194.435 112.342 193.787 112.034 192.965 112.034ZM198.799 111.194L201.319 118.6L203.853 111.194H205.015L201.893 120H200.745L197.637 111.194H198.799Z" fill="#454545"/>
<path d="M145.204 95.056H151.882V97H143.08V95.002C143.08 93.598 143.578 92.578 144.574 91.942C144.91 91.726 145.3 91.534 145.744 91.366L148.138 90.448C148.666 90.244 149.05 89.992 149.29 89.692C149.542 89.38 149.668 88.996 149.668 88.54C149.668 88.084 149.506 87.706 149.182 87.406C148.858 87.094 148.396 86.938 147.796 86.938C147.196 86.938 146.698 87.082 146.302 87.37C145.918 87.658 145.696 88.084 145.636 88.648H143.278C143.302 87.508 143.74 86.614 144.592 85.966C145.372 85.378 146.422 85.084 147.742 85.084C148.954 85.084 149.956 85.408 150.748 86.056C151.552 86.728 151.954 87.55 151.954 88.522C151.954 89.494 151.708 90.274 151.216 90.862C150.736 91.438 149.986 91.924 148.966 92.32L146.536 93.256C146.068 93.436 145.726 93.64 145.51 93.868C145.306 94.084 145.204 94.366 145.204 94.714V95.056ZM158.586 85.084C159.306 85.084 159.96 85.21 160.548 85.462C161.148 85.702 161.658 86.074 162.078 86.578C162.99 87.646 163.446 89.176 163.446 91.168C163.446 93.16 162.99 94.69 162.078 95.758C161.238 96.754 160.08 97.252 158.604 97.252C157.116 97.252 155.946 96.754 155.094 95.758C154.194 94.714 153.744 93.184 153.744 91.168C153.744 89.152 154.194 87.622 155.094 86.578C155.946 85.582 157.11 85.084 158.586 85.084ZM161.25 91.168C161.25 89.824 161.016 88.798 160.548 88.09C160.092 87.37 159.438 87.01 158.586 87.01C157.746 87.01 157.092 87.37 156.624 88.09C156.168 88.798 155.94 89.824 155.94 91.168C155.94 92.512 156.168 93.538 156.624 94.246C157.092 94.942 157.746 95.29 158.586 95.29C159.438 95.29 160.092 94.942 160.548 94.246C161.016 93.538 161.25 92.512 161.25 91.168ZM165.045 86.2C165.945 86.068 166.737 85.75 167.421 85.246H169.023V97H166.899V87.784C166.287 88.084 165.669 88.234 165.045 88.234V86.2ZM174.665 89.89C175.313 89.782 175.931 89.728 176.519 89.728C177.731 89.728 178.697 90.022 179.417 90.61C180.137 91.186 180.497 92.02 180.497 93.112C180.497 94.3 180.095 95.278 179.291 96.046C178.439 96.85 177.365 97.252 176.069 97.252C174.785 97.252 173.759 96.928 172.991 96.28C172.187 95.608 171.773 94.684 171.749 93.508H173.927C173.927 94.12 174.131 94.57 174.539 94.858C174.947 95.146 175.469 95.29 176.105 95.29C176.741 95.29 177.263 95.086 177.671 94.678C178.091 94.258 178.301 93.736 178.301 93.112C178.301 91.924 177.497 91.33 175.889 91.33H172.325L172.865 85.318H179.867V87.262H174.917L174.665 89.89ZM186.58 90.646H191.638V92.5H186.58V90.646ZM200.224 95.056H206.902V97H198.1V95.002C198.1 93.598 198.598 92.578 199.594 91.942C199.93 91.726 200.32 91.534 200.764 91.366L203.158 90.448C203.686 90.244 204.07 89.992 204.31 89.692C204.562 89.38 204.688 88.996 204.688 88.54C204.688 88.084 204.526 87.706 204.202 87.406C203.878 87.094 203.416 86.938 202.816 86.938C202.216 86.938 201.718 87.082 201.322 87.37C200.938 87.658 200.716 88.084 200.656 88.648H198.298C198.322 87.508 198.76 86.614 199.612 85.966C200.392 85.378 201.442 85.084 202.762 85.084C203.974 85.084 204.976 85.408 205.768 86.056C206.572 86.728 206.974 87.55 206.974 88.522C206.974 89.494 206.728 90.274 206.236 90.862C205.756 91.438 205.006 91.924 203.986 92.32L201.556 93.256C201.088 93.436 200.746 93.64 200.53 93.868C200.326 94.084 200.224 94.366 200.224 94.714V95.056ZM213.606 85.084C214.326 85.084 214.98 85.21 215.568 85.462C216.168 85.702 216.678 86.074 217.098 86.578C218.01 87.646 218.466 89.176 218.466 91.168C218.466 93.16 218.01 94.69 217.098 95.758C216.258 96.754 215.1 97.252 213.624 97.252C212.136 97.252 210.966 96.754 210.114 95.758C209.214 94.714 208.764 93.184 208.764 91.168C208.764 89.152 209.214 87.622 210.114 86.578C210.966 85.582 212.13 85.084 213.606 85.084ZM216.27 91.168C216.27 89.824 216.036 88.798 215.568 88.09C215.112 87.37 214.458 87.01 213.606 87.01C212.766 87.01 212.112 87.37 211.644 88.09C211.188 88.798 210.96 89.824 210.96 91.168C210.96 92.512 211.188 93.538 211.644 94.246C212.112 94.942 212.766 95.29 213.606 95.29C214.458 95.29 215.112 94.942 215.568 94.246C216.036 93.538 216.27 92.512 216.27 91.168ZM220.065 86.2C220.965 86.068 221.757 85.75 222.441 85.246H224.043V97H221.919V87.784C221.307 88.084 220.689 88.234 220.065 88.234V86.2ZM233.392 88.522C233.332 88.054 233.164 87.688 232.888 87.424C232.612 87.148 232.228 87.01 231.736 87.01C231.256 87.01 230.83 87.118 230.458 87.334C230.098 87.538 229.786 87.838 229.522 88.234C228.994 89.05 228.73 90.154 228.73 91.546C228.73 92.062 228.748 92.452 228.784 92.716C228.916 91.684 229.306 90.928 229.954 90.448C230.518 90.04 231.22 89.836 232.06 89.836C233.14 89.836 234.034 90.184 234.742 90.88C235.438 91.552 235.786 92.44 235.786 93.544C235.786 94.648 235.396 95.542 234.616 96.226C233.836 96.91 232.816 97.252 231.556 97.252C230.092 97.252 228.898 96.7 227.974 95.596C227.05 94.492 226.588 93.082 226.588 91.366C226.588 89.374 227.05 87.82 227.974 86.704C228.874 85.624 230.098 85.084 231.646 85.084C232.822 85.084 233.77 85.396 234.49 86.02C235.222 86.656 235.612 87.49 235.66 88.522H233.392ZM231.556 91.582C230.98 91.582 230.494 91.756 230.098 92.104C229.714 92.44 229.522 92.89 229.522 93.454C229.522 94.018 229.714 94.468 230.098 94.804C230.494 95.128 230.974 95.29 231.538 95.29C232.114 95.29 232.6 95.128 232.996 94.804C233.392 94.468 233.59 94.018 233.59 93.454C233.59 92.89 233.386 92.428 232.978 92.068C232.606 91.744 232.132 91.582 231.556 91.582Z" fill="#08DF5E"/>
<path d="M258.702 193.194L263.07 200.264V193.194H264.176V202H262.944L258.506 194.832V202H257.386V193.194H258.702ZM270.106 193.04C271.245 193.04 272.164 193.432 272.864 194.216C273.573 194.991 273.928 196.125 273.928 197.618C273.928 199.102 273.578 200.231 272.878 201.006C272.178 201.771 271.254 202.154 270.106 202.154C268.958 202.154 268.034 201.767 267.334 200.992C266.643 200.208 266.298 199.079 266.298 197.604C266.298 196.12 266.643 194.991 267.334 194.216C268.034 193.432 268.958 193.04 270.106 193.04ZM270.106 194.034C269.285 194.034 268.636 194.342 268.16 194.958C267.684 195.574 267.446 196.461 267.446 197.618C267.446 198.775 267.684 199.653 268.16 200.25C268.636 200.847 269.285 201.146 270.106 201.146C270.927 201.146 271.576 200.847 272.052 200.25C272.537 199.653 272.78 198.775 272.78 197.618C272.78 196.461 272.537 195.574 272.052 194.958C271.576 194.342 270.927 194.034 270.106 194.034ZM275.939 193.194L278.459 200.6L280.993 193.194H282.155L279.033 202H277.885L274.777 193.194H275.939ZM286.282 197.45H290.09V198.402H286.282V197.45ZM297.355 193.194H298.699L301.653 202H300.505L299.749 199.76H296.249L295.493 202H294.331L297.355 193.194ZM296.543 198.892H299.469L298.013 194.552L296.543 198.892ZM307.875 201.034H311.795V202H306.769V193.194H307.875V201.034ZM315.292 193.194H316.636L319.59 202H318.442L317.686 199.76H314.186L313.43 202H312.268L315.292 193.194ZM314.48 198.892H317.406L315.95 194.552L314.48 198.892ZM324.707 193.194H330.055V194.146H325.813V197.072H329.761V198.024H325.813V202H324.707V193.194ZM332.035 193.194H337.453V194.146H333.141V197.1H337.201V198.038H333.141V201.034H337.453V202H332.035V193.194ZM342.962 193.04C343.905 193.04 344.661 193.278 345.23 193.754C345.809 194.221 346.205 194.832 346.42 195.588L345.23 195.826C345.043 195.275 344.749 194.841 344.348 194.524C343.956 194.197 343.494 194.034 342.962 194.034C342.225 194.034 341.613 194.342 341.128 194.958C340.643 195.574 340.4 196.433 340.4 197.534C340.4 198.626 340.615 199.503 341.044 200.166C341.483 200.829 342.122 201.16 342.962 201.16C343.662 201.16 344.213 200.978 344.614 200.614C345.025 200.241 345.23 199.751 345.23 199.144H346.42C346.42 200.068 346.103 200.801 345.468 201.342C344.843 201.883 343.979 202.154 342.878 202.154C341.786 202.154 340.899 201.734 340.218 200.894C339.546 200.054 339.21 198.929 339.21 197.52C339.21 196.111 339.56 195.014 340.26 194.23C340.96 193.437 341.861 193.04 342.962 193.04ZM349.602 193.194V197.072H353.928V193.194H355.034V202H353.928V198.024H349.602V202H348.496V193.194H349.602ZM359.835 193.194H361.179L364.133 202H362.985L362.229 199.76H358.729L357.973 202H356.811L359.835 193.194ZM359.023 198.892H361.949L360.493 194.552L359.023 198.892Z" fill="#454545"/>
<path d="M259.204 177.056H265.882V179H257.08V177.002C257.08 175.598 257.578 174.578 258.574 173.942C258.91 173.726 259.3 173.534 259.744 173.366L262.138 172.448C262.666 172.244 263.05 171.992 263.29 171.692C263.542 171.38 263.668 170.996 263.668 170.54C263.668 170.084 263.506 169.706 263.182 169.406C262.858 169.094 262.396 168.938 261.796 168.938C261.196 168.938 260.698 169.082 260.302 169.37C259.918 169.658 259.696 170.084 259.636 170.648H257.278C257.302 169.508 257.74 168.614 258.592 167.966C259.372 167.378 260.422 167.084 261.742 167.084C262.954 167.084 263.956 167.408 264.748 168.056C265.552 168.728 265.954 169.55 265.954 170.522C265.954 171.494 265.708 172.274 265.216 172.862C264.736 173.438 263.986 173.924 262.966 174.32L260.536 175.256C260.068 175.436 259.726 175.64 259.51 175.868C259.306 176.084 259.204 176.366 259.204 176.714V177.056ZM272.586 167.084C273.306 167.084 273.96 167.21 274.548 167.462C275.148 167.702 275.658 168.074 276.078 168.578C276.99 169.646 277.446 171.176 277.446 173.168C277.446 175.16 276.99 176.69 276.078 177.758C275.238 178.754 274.08 179.252 272.604 179.252C271.116 179.252 269.946 178.754 269.094 177.758C268.194 176.714 267.744 175.184 267.744 173.168C267.744 171.152 268.194 169.622 269.094 168.578C269.946 167.582 271.11 167.084 272.586 167.084ZM275.25 173.168C275.25 171.824 275.016 170.798 274.548 170.09C274.092 169.37 273.438 169.01 272.586 169.01C271.746 169.01 271.092 169.37 270.624 170.09C270.168 170.798 269.94 171.824 269.94 173.168C269.94 174.512 270.168 175.538 270.624 176.246C271.092 176.942 271.746 177.29 272.586 177.29C273.438 177.29 274.092 176.942 274.548 176.246C275.016 175.538 275.25 174.512 275.25 173.168ZM279.045 168.2C279.945 168.068 280.737 167.75 281.421 167.246H283.023V179H280.899V169.784C280.287 170.084 279.669 170.234 279.045 170.234V168.2ZM292.373 170.522C292.313 170.054 292.145 169.688 291.869 169.424C291.593 169.148 291.209 169.01 290.717 169.01C290.237 169.01 289.811 169.118 289.439 169.334C289.079 169.538 288.767 169.838 288.503 170.234C287.975 171.05 287.711 172.154 287.711 173.546C287.711 174.062 287.729 174.452 287.765 174.716C287.897 173.684 288.287 172.928 288.935 172.448C289.499 172.04 290.201 171.836 291.041 171.836C292.121 171.836 293.015 172.184 293.723 172.88C294.419 173.552 294.767 174.44 294.767 175.544C294.767 176.648 294.377 177.542 293.597 178.226C292.817 178.91 291.797 179.252 290.537 179.252C289.073 179.252 287.879 178.7 286.955 177.596C286.031 176.492 285.569 175.082 285.569 173.366C285.569 171.374 286.031 169.82 286.955 168.704C287.855 167.624 289.079 167.084 290.627 167.084C291.803 167.084 292.751 167.396 293.471 168.02C294.203 168.656 294.593 169.49 294.641 170.522H292.373ZM290.537 173.582C289.961 173.582 289.475 173.756 289.079 174.104C288.695 174.44 288.503 174.89 288.503 175.454C288.503 176.018 288.695 176.468 289.079 176.804C289.475 177.128 289.955 177.29 290.519 177.29C291.095 177.29 291.581 177.128 291.977 176.804C292.373 176.468 292.571 176.018 292.571 175.454C292.571 174.89 292.367 174.428 291.959 174.068C291.587 173.744 291.113 173.582 290.537 173.582ZM301.037 172.646H306.095V174.5H301.037V172.646ZM314.681 177.056H321.359V179H312.557V177.002C312.557 175.598 313.055 174.578 314.051 173.942C314.387 173.726 314.777 173.534 315.221 173.366L317.615 172.448C318.143 172.244 318.527 171.992 318.767 171.692C319.019 171.38 319.145 170.996 319.145 170.54C319.145 170.084 318.983 169.706 318.659 169.406C318.335 169.094 317.873 168.938 317.273 168.938C316.673 168.938 316.175 169.082 315.779 169.37C315.395 169.658 315.173 170.084 315.113 170.648H312.755C312.779 169.508 313.217 168.614 314.069 167.966C314.849 167.378 315.899 167.084 317.219 167.084C318.431 167.084 319.433 167.408 320.225 168.056C321.029 168.728 321.431 169.55 321.431 170.522C321.431 171.494 321.185 172.274 320.693 172.862C320.213 173.438 319.463 173.924 318.443 174.32L316.013 175.256C315.545 175.436 315.203 175.64 314.987 175.868C314.783 176.084 314.681 176.366 314.681 176.714V177.056ZM328.063 167.084C328.783 167.084 329.437 167.21 330.025 167.462C330.625 167.702 331.135 168.074 331.555 168.578C332.467 169.646 332.923 171.176 332.923 173.168C332.923 175.16 332.467 176.69 331.555 177.758C330.715 178.754 329.557 179.252 328.081 179.252C326.593 179.252 325.423 178.754 324.571 177.758C323.671 176.714 323.221 175.184 323.221 173.168C323.221 171.152 323.671 169.622 324.571 168.578C325.423 167.582 326.587 167.084 328.063 167.084ZM330.727 173.168C330.727 171.824 330.493 170.798 330.025 170.09C329.569 169.37 328.915 169.01 328.063 169.01C327.223 169.01 326.569 169.37 326.101 170.09C325.645 170.798 325.417 171.824 325.417 173.168C325.417 174.512 325.645 175.538 326.101 176.246C326.569 176.942 327.223 177.29 328.063 177.29C328.915 177.29 329.569 176.942 330.025 176.246C330.493 175.538 330.727 174.512 330.727 173.168ZM336.97 177.056H343.648V179H334.846V177.002C334.846 175.598 335.344 174.578 336.34 173.942C336.676 173.726 337.066 173.534 337.51 173.366L339.904 172.448C340.432 172.244 340.816 171.992 341.056 171.692C341.308 171.38 341.434 170.996 341.434 170.54C341.434 170.084 341.272 169.706 340.948 169.406C340.624 169.094 340.162 168.938 339.562 168.938C338.962 168.938 338.464 169.082 338.068 169.37C337.684 169.658 337.462 170.084 337.402 170.648H335.044C335.068 169.508 335.506 168.614 336.358 167.966C337.138 167.378 338.188 167.084 339.508 167.084C340.72 167.084 341.722 167.408 342.514 168.056C343.318 168.728 343.72 169.55 343.72 170.522C343.72 171.494 343.474 172.274 342.982 172.862C342.502 173.438 341.752 173.924 340.732 174.32L338.302 175.256C337.834 175.436 337.492 175.64 337.276 175.868C337.072 176.084 336.97 176.366 336.97 176.714V177.056ZM350.352 167.084C351.072 167.084 351.726 167.21 352.314 167.462C352.914 167.702 353.424 168.074 353.844 168.578C354.756 169.646 355.212 171.176 355.212 173.168C355.212 175.16 354.756 176.69 353.844 177.758C353.004 178.754 351.846 179.252 350.37 179.252C348.882 179.252 347.712 178.754 346.86 177.758C345.96 176.714 345.51 175.184 345.51 173.168C345.51 171.152 345.96 169.622 346.86 168.578C347.712 167.582 348.876 167.084 350.352 167.084ZM353.016 173.168C353.016 171.824 352.782 170.798 352.314 170.09C351.858 169.37 351.204 169.01 350.352 169.01C349.512 169.01 348.858 169.37 348.39 170.09C347.934 170.798 347.706 171.824 347.706 173.168C347.706 174.512 347.934 175.538 348.39 176.246C348.858 176.942 349.512 177.29 350.352 177.29C351.204 177.29 351.858 176.942 352.314 176.246C352.782 175.538 353.016 174.512 353.016 173.168Z" fill="#08DF5E"/>
<path d="M4.49996 22L4.49993 90.5L108 90.5" stroke="#1A1A1A"/>
<path d="M120 103L120 171.5L223.5 171.5" stroke="#1A1A1A"/>
<circle cx="4" cy="11" r="4" fill="#08DF5E"/>
<circle cx="120" cy="90" r="4" fill="#08DF5E"/>
<circle cx="234" cy="172" r="4" fill="#08DF5E"/>
</svg>
